<mxfile host="65bd71144e">
    <diagram id="ZaDpea-G9qkJMnc7hgnw" name="Page-1">
        <mxGraphModel dx="1923" dy="1034" grid="1" gridSize="10" guides="1" tooltips="1" connect="1" arrows="1" fold="1" page="1" pageScale="1" pageWidth="827" pageHeight="1169" math="0" shadow="0">
            <root>
                <mxCell id="0"/>
                <mxCell id="1" parent="0"/>
                <mxCell id="2" value="" style="shape=image;verticalLabelPosition=bottom;labelBackgroundColor=default;verticalAlign=top;aspect=fixed;imageAspect=0;image=data:image/png,iVBORw0KGgoAAAANSUhEUgAAAggAAAHFCAYAAACXYgGUAAAAAXNSR0IArs4c6QAAIABJREFUeF7snQdcFEf7x3+7dzQF7KIiqLFjL7HF3jXGhoK9xF5ijcZeEUtioqDGkmavifqqqNHYYokFe+/YlSI22t3t/v/P7B2igtzB3XHg7OfjG16YnZ39zezOd595nmcEWZZlJHNQEUmSYCgqimJyp/C/cwW4AlwBrgBXgCtgQwrQHE7/aA6n/6pUqo+2TjAGEKgGAxwIgmBDt8ubwhXgCnAFuAJcAa6AJRQwGhAscXFeJ1eAK8AV4ApwBbgCtqkABwTb7BfeKq4AV4ArwBXgCqSpAhwQ0lR+fnGuAFeAK8AV4ArYpgIcEGyzX3iruAJcAa4AV4ArkKYKcEBIU/n5xbkCXAGuAFeAK2CbCnBAsM1+4a3iCnAFuAJcAa5AmirAASFN5ecX5wpwBbgCXAGugG0qwAHBNvuFt4orwBXgCnAFuAJpqgAHhDSVn1+cK8AV4ApwBbgCtqkABwTb7BfeKq4AV4ArwBXgCqSpAhwQ0lR+fnGuAFeAK8AV4ArYpgImAwLb2on+sS0ZZAjsB/qFBCD9bOIkU5tZ05W9Jeg+4vebEPl+E7Y5XHmruAJcAa4AV8BaCpgMCDpJhqyTAEELQVBBgBoCwYGggQzaGcoADIZJ1rBZpOH3ynSsHPGkkcjPxpZLajJPpm6BAEEGJJFBAtvhikGDAEGltpb+/DpcAa4AV4ArwBWwSQVMBgTa9hnQIVbzCs8jXkHW2rOJVha0gGwABJu813cbRW0mC4hM214KEEUJLi6Z4OycGaJonw5ugDeRK8AV4ApwBbgCllPAZECgJQadToOI56Ho3esb1KjRBLIsQhAkQKYv7/RinifQIcOFCoIgIzo6EmXLfYY2bVpAED++R7bluoPXzBXgCnAFuAJcAdtQwHRAoNUEAKFh4ejWfTBmzFgGGfTFLUFgFoR0cgjUXj0gQEJERAiehV2Bb4eWENKPK0U6EZs3kyvAFeAKcAXSmwIpAASZfXGHhkaga7dhmDHjN0gMENKP7cDQSaLeT5GWTBgghJ+Hr29LiCInhPQ2kHl7uQJcAa4AV8C8CpgOCLKOLScogDAUM2b8AUl2ZHQgsBCH9HJISgSGLEIUYhERcRvPwi8rgCDYpZeb4O3kCnAF0lyBBA7RCV6BMjNR8sPWFVAi8fiRmAIpAAQpgQWBAOE3yAQI+oiE9CK1yEBHgJZCM4U4PI+4g/Cwy/D1oSWGdLRUwsc1V4ArkMYK6AHhPR4gQGDh1PywaQUEiBwRkuihFACCYYkhHN3YEsOvigUhPieCTY+F+MaJMoEO9ICgwfPndxAeegm+Pq0g8CWG9NGJvJVcAZtS4F0YUAyq6eWTyaaEtGpjaB7gR+IKcEBgFgQOCPwB4QpwBVKoQPwKA0VGSTCAgWK65rNPClW10mlK57H/5aTwgeYcEDggWOlB5JfhCmRQBeJzwWlBeWJkiSYcESrKyMr5wEY7Xek0SpAnCJQLR2kmQQIHhbddliaA8OjRXeTJ48miBehnBwdH5MiRx6oDiS8xWFVufjGuQMZVIB4QdIiKisH3swOQOXMOqOzJ2Vn5Y3K5Y9lkZUS5hHlpkzvHcF1L5rJNrg2pzaebmvM/1jay9cgSLTMLcMvtjI4d2zNYUKm4/1nCBzVNAMHfvx9GjpyH+/du4JshzfDrr4eRL18hRt8GglP2RXj7yLBUyGb0DeCAkHHf1/zOuAJWVSD+NaVDRPgrtGvTE1On/gDZzoV5ZvHD1hR4O5dotRocPrgG48YNY43kgPBuX6UZILRs+TVWrZqLQYNmwMOjKHYGrcSp4IPI4+aB7j2+w88/T0RExFOUKFkRIXevITo6Ck2bdkT16k3NMto4IJhFRl4JV+CTVkBvqGb7uQiCDs+fv4SPTz9Mn/4L1HbOzBGaH7anAH1/Mid1bRyCdizA5MkjWCPN+RFqe3dteovSBBBGj/LG7TuXUaJEJUyZ8jtkWcI33zTDiBE/YcOGQPTuPQn+/n3x44/bsWTJBDg6Zka3bt9h3k8jMWp0oOl3mcgZHBDMIiOvhCvwSSvwLiBIeP78BQOEadN/h51dZm4/sNHRQXMOWatp24CgoABMnjyStZT7H9iABWHq1J4YOHAGNm1aBI0mDr6+32DYsBbo2XMsYmNj4OVVGVs2L8PIb+dj0aKx8PKqijp1WmL+vG8xbPiPZhlyHBDMIiOvhCvwSSvAASF9dj8HBOP6LU0sCAYfBIKD4cNboG/fqQjasRJepT7HpUsn0Lv3BGzYsJBZFAgQSpeujlq1WmD+vFEYNnyucXeWTCkOCGaRkVfCFfikFeCAkD67nwOCcf2WJoCg02mhUtHOj4Ck0zEXX1oTCg9/jOzZ3aBW20Gn0zGHEfqvKNL6nhj/O+Nu7eOlOCCYQ0VeB1fg01aAA0L67H8OCMb1WyoBQUm1nO4zKSJBoiRfnknRuKHDS3EFuALmBISQkGvIlMkFuXLl+0DYGzfO49GjO+/8Pnu23ChTtvo7vzt//ihC7l1H/nyfoXyFWomuqT9+HILXryNRtGi5j3ZgVNQrBAcfZNbbmJgo2Ns7sA85rTYWDg6ZEj331atIuLhkTfRvZ8/+i2LFyuPmzQsoVapK/EdiWowiDgjGqZ4iQKB9kkNDw9G92xCWapn2YpAhQSUrVoH0cciQBChZuGUdwiNCEBZ+AT5sN0fuepw++pC3kiuQtgqYExB+XjQexYpXQIMG7T64qfXrAnD4yE48eHCTOXV7eBRD8eIVMHiwf3zZP/6YhQ0bFqBs2Rq4ciUYVas0xNhxPzPra8Jj8+aluHrtNMaOWfxR8e6FXMfIb1tjyZL9GDCgIX777Qh27VoNd/fCqFat8Qfn7t27AdeuncWgQW/blLBQt25VMHXqcsyc2R/z5m1nMJRWBwcE45RPNSD4+9F2zw4sxaiKshKmE79diVKiQmBtlmUNIp7fRmjYZfh0aAXxvQfKOCl5Ka4AV+BTU8BSgHDi+B7sP7AFHp5F4d22HxwcnJi0y5ZNY4DQt++Ud6Sm3w0d+iXatxuAWrVb4vHju/j++yGYMuUPdu7mLUsRHvYUbdr0wfHjexB8+gDccnsiS5bs8PX5Bvfu30B42GOcOfsv1Gp7dOo0jFkNNm5ciLx5C+Knn0ZixIi5CApahZw587HwdMpj88++P1GwYAl4t+2PKVN74Mnje5g46Ve4OGfF2nXzYKe2R4+eY+HomAnvAwLltlm3bj4iX0SgxZddUbx4RasNHw4IxkmdSkAYBn8/2u7ZjnGBCjrjrmoDpQgPDIAA0HbPt5Ttnju0hgC+3bMNdBFvAlfA5hWwBCBkzZoTEyZ0QvfuYxAcfACFCpXAwIHKV3lSgEB/o6iwNWvmoUqVBqhcuT77r6trdsyeNQAxsTEoXrw8tm37A19+2R2//DINAwf44fCRIDRo4A07OwfMmNEPgwb64fyFYyhTuho7v0vXypg7dzMmTeqOWbPWY+vWX1lSu3p126BP3zr47rsFOHfuKGrV+gqnTu3Dkyf3GTyMGeODhg3b4c2blzh0aDtWrjyFfv3qvWNBmDNnMOztHeHhUQS7dq1BYOAu5oNmjYMDgnEqmwwILNc4JISGRqBHj+Hwn64HBMpClY4s85LMcpuAEmtSgpPwiNt4GnYBHZgFgafbNG748FKfggLsmWc56wWeSOa9DrcEINAavaOjEwOEp0/vY/DgJti48fIHgEBf+OvXB7JJ2D1fIbRs9TXIB+DM6UNYv2EBbt26gD/+OI4ePapj5cqTyJXLnZXdvXstTgXvw0z/DTh5ch/+PfQ/eJWqgr/3rMOPc/+HS5dOYsf2P+Dt3Z8Bwp9/XkXfvnWxfv0Fdr2SJSujVKnP0aZNUWZd8Pbuh6ZNO2PnztXMclGpYh2MG98Rdeu1ZuNmx/YVWLH8BPxnDngHEDp2LIvPqzRgY+rkiQOYOHEZKlasY5VHigOCcTKbDgiyzExc5IPwdU+yIPwCnWxYYkg/E+tbC4IAWdbhecR9PAm7CN8OLfR7exknIC/FFcjoCihpz5WDp6J9t7ctAQj3799EbEwU+vWfBnIoHDPWB8v/OP4BIFDOGPIJiI5+jWzZc+PY0V0YNYr2gciC2NhoNG7shpn+6zFlSg+sYICQD1u2LENkZDiehT5gPghkoThwYDNKlaqK/47vxpTJy5n/wrb//ZYEICxAyZIVmZNh8KkD0Oo02L9/M1xds6JYsYp4/OguKlWqg+l+fTBq1HwWkUblOnQcilGjvN8BhC5dKmH48Lmws7PHzRvnUbtOS3h6FrfK48QBwTiZTQYEeldIsg7PnoWic+f+mDZlAXRQA4IWYrryQdCyXJuiZAdZ0uHly8d4+PgC2rYlQOAHV4ArYFCALAh0ZMuWjQECT0f7dmxYAhBo47rRo9tiwAA/HDr0PzYZU3ZZOpL2QZAxe/ZAFnXQqeNw3Lh5Dvv2/YV1684jIGAUaOtpyjOzdu18+PgMxq3bF40GhJ07H6BdOy/mz0DAcu3qGXi364chQ5rj22/n48b1s4iJjUbp0tWYk+Tkyb9hxIjWaNqkIxwcnfDXX0uwfv1F9OlTB9OmLYe/v+KkOHfucLyJeokG9byx9JepWLJ4P19isLHXTooAgb64Hz16gi+/7ICGDTpAojV7QQcByoskfRz6ryJZxUynshQLiLHInj0LIL/r9Zs+7oe3kitgLgXeWgxoYtFqo3Du/An88stCZM3myp14E8hsTkC4c+cKnJ2zIEcON1y9ehp3715lywJly1aPd1KkUEjaxK5AgRIfdHZcXAzzB6BIB1rLL1fuC5A/Q1TUa+YfQBYH+h3loTGEOUZGhjHnRBfXbHj+/BlzFKS/PXlyjy0fnD59EDVrtsDJk/8wa0DBgiWZk2PlyvXw8kUEi4ZwccmGypXrgjY+OnZsN2uvSmUHCmskH4MyZaqx3XpPnz6EEiUqgEI2S5euijdvXrEyMTHRKFq0DKvbWqmOuQXBuHeFyYBAGyzK0DEfhG7dh0KJYnBkg5ZeJunzoGWTt5uiWmuQpk+teKszvgL0LEgQCJ4hQ6N5ibnzxmHxEn9kzeqajp9z8/ecOQHB/K3jNSalAAcE48ZG6gChGyVK+jVdJkp6Xx6VSgBZUsmcyk2oxg0eXiqjKsABwdie5YBgrFK2VY4DgnH9kQJAoPBAJYqBWRBm/A6Z5UFILxkQPhSGrAeSpHhps/vge7QaN3p4qQyqAAcEYzuWA4KxStlWOQ4IxvWHyYCghDspmRS7dRuWYSwIxsnFS3EFPgUFOCAY28scEIxVyrbKcUAwrj84IBinEy/FFfiEFOCAYGxnc0AwVinbKscBwbj+4IBgnE68VKIK0OuR/hmiPpTXJTm28SPtFXjrdpt4W8itmA5aMqQuE+IThNGZOgiymjspJtONHwBCRCR8fPtj2vTfYGfnnG7dttN+9Fq4BbLElpJ1Og12BAVg8uThypvMosvLSpSfTO9LytLHIv/o3Wm7UXMcECw8DjNy9SKbRGhXCztoZRk3r11EeNg9QI4B9JMNPXSG2JaEE1ZSPysP0LvnGHu+AifK+R/7OblyqWnD+9c31JWa9rw/0Ruj6VsFlBYkqim9IAUBkqCFWnRA5fJ1YO/gDFGkzIkUxcABIbnn9x1AABAWHoYOHQfAz+8XOKgzg+/7lpyC1v87s4/pndF1Wg227QzExIkjKC0O263y3YOeaGPfQEmVM7wVYlldkmSnRAIJcSxrryjaW18EI6/IAcFIoXixDxUQ9Q8TcbFWfo25c0eherVCyJ3bAYJEoa+GByMlD5gp5yR8qtMrIiTU92P3kBi+fIgf8ROXodpEPlJkHYFDHCRBhT27TsPHZwTy5SsFQZQh0wsUPMwxuef+fUB4/Pgx6jdoiyZNu8Hejna3TQ7vEoaGfwyNE3seUouyxp7/sXLJ1ZHcc2zJ85OumwBYVKlAgHDp0lHUrlUVOp0EtR3b31d5d9FXvtkOegB1gEDwrWbZe6NjIzBwQG/kyfPh9t5mu2wqK+KAkEoBP+XTGVuzPS1kaOUXCAgYCb8ZveGZzwkCy41hzgfsU1ba9HtPmB6Zve6ooxI5BK0EjWyHgMD1KFqsOdw9KirvRkmGKNPLkudB+Jj67wNCaGgoOnUZhGnTF8PBzp4vt5k+dK1yhk6nY9tgC6IIFSXKk+kzR2DLDobMoQrbmeMdRg+UimUbphemTquD2k7C7r3r0apVQ5QoXtQq95ySi3BASIlq/Bw9Y5MZWllTk6Uo/BTwHWb69YGHuxMgpZ99OTJsd+rfbZJWgiyq2MtQoCgk/VetLFEBe0g6IPDnNShSrCHy5C8FSSVCJECQ+BJDcmPjfUB4/vw52vv0wfQZv8JR5awPmU7KMpAceiT8+k7s5+S+vg0TnLFWjITtTK7upCZOc1tBTLWcmKKpoo+yrPAhQCvh7uYAhIT9wDwdICEGQbtXoJ13PQ4IyT1k/O/pUwFKrU2TjUR0rIvD/PmjMdOvN9zzOwEymVcTe8kk9tIy5QWWkOqNeRkZ+6JLSRtS4knxfl8b43GR3D18XFMJakg6Ebdv3cI/e/fD3kFZ8xRkATExEho2bog/t+xH6bJNkTd/SUiiCJFMsBwQkn0wPwCEyEi09+mN6X6/wVHlyta1+WHbCnzod5CgvebqP3YR/bNOVgrEIWj3crTzrouS3IJg2wOEty5lCrCVcsMcKcUgMGAE/P26IZ8HAQJfYkiZquY/i+BAkuyxffsOvHkThWrVqsR7h/xz4CDy5M2Hy1eeoVTJFsjrXlpxsIbElxiM6Ip3AUHG88gXbwFB7ZLI9ych9bseIgk9Toy4JC9iZgXY1J0YCCS+Kpfk1d+tIqHlg0KEaHmBUvXa0Z6ozPcn6O/laN+WA4KZu5NXZ0sKCLIGzFKtBeYHDMfMmV2QP09OtlMmP2xDAfJHuHjpJhYtWg47RweM+LYfPPLmZRaEHdv/hmgn4MLleyhVvBPcPYpCEsjHWuZ7MRjRfe8Cgg7PI1/Cx6cfpk3/HY7qTIk8BgJ0ssT8dhI9+GNjhOrWLpKco2VCSyKFDJPvDjkl0nIeOSbqIIGWXOmZoj2PVYAci6C/V8Dbuy5fYrB2d/LrWVMBjfKy04iYHzgcM/0JENwUWuaHTSggSTqsW7cVu3Yfx9OwMIwd3w+1v6gGWQfs2v4PBHvgwqUQeBXvDHfPwpDIeYt8FfhmTcn23zuAIEh4/vzFRwCB1rvJfpB0phATP1qTbR8vYF0FEvId/UxhrmRl1dE7UiCfLQEq8tmSY7Dz75UMEIrzJQbrdhK/mjUV4IBgTbVTci3y0H7wMAxLl65DJudM6NO/E7K5OEGWROzesY8DQkpE1Z/zUUCwy/Q2ZI6VZwHB+rVojgKpkN2GT6V+pX6m/6ogy8qSgo75O3JAsOGO402zjAIcECyjq/lqJQvChk07sHLFZoQ+f4mf5k1A9SqVIGlk7Np1EIJKh3MXb6NMyW7cgmCi7B8HBEe2uE3hdCxZlaxF5ItQTJs+EM6ZNBBEvSWBRQKZz1/exFvgxc2kAAsKlu0gMS8TAU9DX2LyhB+Q38MLOkkNiGSV4xYEM8nNq0kfCnBAsPV+kmQJwacv4+dFK6GyV2PM+G9QyCMf2T2xfdseqB1FnLtwG6VLdOWAYGJnfhwQHJT1aEFkSXhUKi1Cw+/j2rUt6NSpAUQGDm8PthHeO1n7kgpzpHOSC4FMKsImJdE6dL2kom3eF8yYqBxT2mBqmOP7qGVMpJMp7TFo/6G+tCQH2EEWJOhEAevX/o0CBarDPU9ZaGV7QOQWBBMfL148/SvAAcHW+5C+ZzQaETuCDuJNdDSq1SgNFX3naIH9+47CzT0XLl+9h5JFO8PdowgkUeA+CEZ26scBwZ4lyFEsCJRBLw7hL+7j3u1d6NH9S+bIyzJWim9BgfsoGim8zRbTQhYp/bwKa1bvh4NDCRQrUgNaWeSA8JZ+bbb3eMPMrgAHBLNLauYKZVmAThJw6dI1rFu3FmqVIbBOQJw2Fr4dfbEzKBhly/gin7sXZBV96ZA5lCdKSq4rPu6k6MQyWMo0ObAvfh3CIu/i3p2d6EmAoN/YjENBcirb1t8l1ukszgcarYRXL18pYcO0f4lIwOcEx8zApk2H4JK5BvIXpPTlyjPHlxhsqy95ayyuQMoA4dr12xg8ZDJmTP8WVT4vl+pWhoZG4MLFa6hfr3qq60qqglev3mDrtr3o1OGrd776DOWX/bIOXl5F8EWNyhZrQ0oq1lHkFZm6ac1bJycIvZMhi1rIgoD5P21A8WKtkM+9FKDWARIHBGO0/jggZIYQH81DnusSA4T7d4PQs3tzpXoCMR4SbIzUNlOGloIIEmSocfHSVSwI+Blly5RmUE0sGBH6GoWL5QLEnHB2qQWPgsXjl4Q4INhMN/KGWEeBlAHCnB+W4tixYHh45EPAvMmsqZIkIyoqmk1g9NJ0cHCAKArsdzpJQiYnJ6jVKkRH026RAjRxGjg42MPe3g5BO/fjyLHTmDJxKLRaLTJlcmJ1UllHRwfExMRCkmWoRBF2dmr2ezL9OjnRNUTExsYhJjYW9nZ2cHJyhEajhVang1ajZRNr5kxOOH3mIkaNmY3tW5axMlFRMdDqtLBT2yFTJkcW4kb10dcFtTsmJo61ja5PB12D/tH1lWto2No0XYvaq1JZZttXrY6mMSXv/DvJY8nEDQ2Lyw+YtwnFirXkgGDiQ8MBwUTBMkBxBRBoF1R7HDt8HGfPnkXv3j3h4Ej+JsDli3dx4tQ+qO3zwYUDwq+QWNa8hA42GWAU8FswUgHTASEuToMatdph/ZpAdO42HP8d+ZNda8nSNdj05042eZKFYe2q+bh+8w6WLVuHLFld2YS6dlUAfDoMRnRMDNxy50TI/UesntGj/XHvwSOMHzsIM+csxuEDG1idnbsOx4KAKfD2GYjYmFi0atkIr99E4b//zsDRyQGNGtZC29aN0bHLMBQo4I5bt0Iw028UQkPDWT1eJQvj1u37GDm8F86fv4rlq/7C4oV+IGvCwp9XooCnO2vrlr+W4I/lf6JCeS92D/fuPULu3Dlw7/4j7NuzBjdv3kXv/mPhmT8fQu49wIrff8Shwyew6OdVEFUi1q2aj4IF8xupuWnFlGyXb5294r9Y2VeQxLbNmDtnDUqWbMsBwTRp3+ZEZNEK7+dB4BYEE+VMF8VpMyeyyt29+whDh05AHrdcqFG9Mr7u3ZFtxnTlYghOnNoPtX1ebkGYMYMDQroY1RZrpOmAsGnTTnz/41I2sY8cPRPt2jZB61aNUbRkfRw9tAkqtQqFitbG3l0r2cS+9OcZKFq0EJp99TXm/TABs2Yvht/0EWw5oUTpRvht2RzodFocOnwSfb72Re0GHXHr6n52x02adcOaVfNRpUYb7Nr+OwoV8kDDJl1x4J+1ePDwCX79fSOuX7sFT093zJwxikHKHyv+RO+vfbFj5378uWERFi5aiSNHgzF+3CCM+HYGgrb9hvUbtsPd3Q158uTC2PHfY/S3/bBt+z+o8nlZrFi1BY3q18CAAV3QtfsITJ86EvMCf8P9+0/gN3U4gnYdYPXVr18D69dvw8F96xJdsrBYl8VXTNAgsSQuP8xZAy8vbw4IJorOLQgmCpYBilPYsCwKePzwFcaP90dExHMMGtgTjRpUhWCnwlUChOADUNnl4YDAASEDjPhU3YJpgEDbrLb27o8LF6/CzS0XIiIi8eZ1FP7etYL9/sTRv5Aliwuy5aqA5b/+gC49hsPHuzmcnTPhzZtodOrYEpOmzEPA/MmoXKkMSpdvivk/TmKmvXhAqNcBt64fYHfVsHEXrF8biC9qt8eVi3vYl/2oMTOxYe2C+Lv+ok57BhY9urfDsf9Oo9/ACRjQtzPOXbjCrAWr1mzBn5t3Y/qU4fGAsHjJagQsXI7qVSswK8HUycOxa/fBeEAYOrg76tSpim+GTcGg/t0wbUYAwkIjULxYIWi1OmTOnAkFP/PA9au3EDB/Sqp6IPmTP56UhwNC8gomVYIDQsq1S69nktVNp5UQGhqDUaOn4Mnjx/j224Fo3KQmM9RxQBBkZoLt1m0YOCCk12FurnYbAEHA/IBhmDmzmz7VMmWM+/AgIKjboDOOHd6EzJmd2OY2hYs3wNqVP2L0mNkY+90Atttg+w7f4ODe1eg3cDzGjRmEWjU/x+ixszFuzAD0HzABgfMno1Kl0ihTvjnm/TgBmZwcsXLNVowc1gv1G3fB/zYvZcsA/QdOwMF9a1Czji+uXPwbBCh16nfGogVTQY6N8wJ+R2mvorh77yF++mECvp+7lEHEl83r4/iJs/h54TSsXrMVmzbvxhz/0ejeazS2/rkE3Xp+i+9G9UXhzzzh03EI/KaNwD/7jsYDwrAh3VG7VhV8M2waBvXvivUbt+FU8EUsWeSH3Xv+haSTEB0bi1s37uKnHyeYqzM+Uo+y371yGGLDFc9qnSBwC0IKe4ADQgqFS9enESIAd249xcjhk5Anjxs+r1oa3bu3g6Cyx7XL93AieC9U6rxwdiYnxZL6R49HMaTrbueNT4kC5AUvAVoB8+cTIHRHfrc8LKQrsWP12i04dfoCfvp+Yvyfp80IxMtXr9Cnpy+8Ow5E1iyuOHHyHI4c2ARXl8xo2LwrXrx8jX69OuD7WeNQp4EvfvphIipWKI0KVVtg7uzxqFyxNIqWqo+hg3ogKioKs39cirKliiNvntxY/vuPqNeoA84H72LXXLHyT/QZOBZFChdkyxNVPy+Ptj79sS3oH9SoWhF7glZiw59BDBAC503BmnVbsfV/e7B6+U/wKt8E1auWR9PGddB30HjmnNi2dTPmi/D69WtUrVIeK1ZtxpDB3VHriyoYNnIqBvTrwnwPfLt8g51/H0LNGpURtPU3LF/5J27duovvZ49PifBmOEcGRC10gsgBIYVqckBIoXDp+DTae4acpqFzxKEDx3DmzBn0H9QrOL6pAAAgAElEQVQLjo4q6HQCrl0NwcngvbCzzwdn5zrwKOjFfBNoOY9HMaTjjudNT4kCiQFCXv0DYVp93r790KdXJ0RHRaN7rxG4dvEA8ubNzb624+Li4OhEzrBJHxTVoFarWdRBXCxFENgnmb+WHB4pkx35Oygf1TLbCjlTZtqBL+nIdLJA0N8p8uGDOpK7XVmJ0qBr2M6hgU4EfpizGl5e7VgeBKi1LJ08z4OQfC9xQEheo4xWQpZ1kAURsmSHy5du4oc5c1HS6zO2pbMg2iH82RuUqeAJWcgFV5e6yE+AwKx2HBAy2ljg95OsAgogSBoBgQHD4O/fDR5ueVg2MeWhMP44cuwUZn+/hO14R5EEpUtR/DA/LKUAizuSRehEclIkQGgL9/wlIYlxoE1pOSAkr7wtAAIt92bPnhUqlQK7FG5rZ2fH/HaMOWjZj0JxDaHB758TGfmShe9S2HHCg55TWqajaJ2EB3n505EwQ6Qx7Xi/zMNHT+PzRFBkU7ZsWUyq5tWr12wnRVdXZ5POS66wkhCJsmCqEBcn4/HjJ2yfDSUpFp3tiBy57bDlf0fh4lxXsSCwgwNCctryv2c4BRRAkAkQAodjhn935MmRA2rHlG/3zHLS8+QxFh8psqyCNlZge9LO/XENSnu1gbtHCWiFWLYlrSDbsXxxGs1LzJ03DouX+CNrVtcE+wVYvIk2fwFbAIRmLXqierUKmDRhCNNrxEg/eHkVRe9evkbp16ffWDRtUgfebZsmWv7b0TPRskV91K5d9Z2/R0XHoFXrPtize2X87+nZneYXiM6dWqFI4QJGXT+xQmSpK1S0DgtlJuthdEwsfg6chgYNvjC6zp/m/cocgkd929foc4wrSL1OMcKUt8TwTwEANh5kR8iql1i95m/9EkMpvf8PBwTj9OWlMpACegtCnICAgCHo0aMm8uTMxUxw/LBxBSh2X1Y2IF61Kgi1a/eGh0dJaMU4tlYqckBItgNtARCq1/TG1eu3sXPb76hWtTy+7v0dypUrgaHf9GT5N67fuMuSc1WvVpFZFR4/fobzF66yL/+yZUrCt+M3qF6tPIoXLwxPz3woW6YELl+5gdhYDXNGd3VxRuEiBZArZ3b2+7t3HqBUqWLImSs7vqjVDqtXzkPI3QcoW7YEXF1d0KR5d+aD07ZtUzjQMh+AyBcvcfr0JbaMV6L4Zyxs+fLlG8wh+fr1Owwm6HeG7wICBM/CtXDy6Gbky+eGvzbvxrYd/+D3X+bE98n9B4/x7Fk4iw6qUaMS7t59gLshD1C4cAF4lSzCQIWSpk2dPAz/HT+D8uW8WHK04yfOsMRpFcqXYhpcunQdlJuFEqlVqlg62T5/xzIan2NEsd7QvieQHSCr9YCQOaEFgZbt+G6ORgjMi2QcBZQoBl0cMGd2f3h5qZHFKRMkQclk+OEucPQ7w14ACX9OHCgEthiecdQyx50ouf2TOgzRCsbtUOeglhAraXH4yHX07OGPAoXKQCdwQDC2n2wBEBo3645RI3tj+owFOLR/fTwgDOzfheUJ6eTbkk2uBA+LFkxH5aotUaZ0cZw5exljRvfHX5v/xpFjwejWpQ2Wr/gTB/evw4yZi7Bz1wGWH6TwZx7o08sXKpUanboMRc/u7bFj134cPbQR1Wu1Y9lJS5YojPsPnmDThkWoW78Ds0aMGzOQhfPS0bHLUMRGxyB7jmw4fDQYp/7bina+A3Hl6k3Uq1ON5QX578hfyJEjGytPgJDXsxrWrpgHFxdnzJrzM6p8Xh5jvusf3zWBgcsxbtIPqPVFZdStUw1z5i5DR58WWLdxOw7sXYs/N++CVqNhWVfPnLmErZuXYuiI6fj38Al4uOfDs9AwloOkZZs+uHjxOrp0bo05s8YY0fWJLJ3qrQkKIIiQVTFYvfpvOLvUQH7PciyLKV9i4G9yIwZXRiuSVB4EE/wPWFHDhjbv60MTXsqXKzKa2gpzqdhL78ODeRYaf8uyPlGSwQehlDfy5isFWa2DIMkQ+WZNyWppK4Cwa8cf6NB5CIoVLYgHD56gQgUvdOnUGgcPnWDpvrds/RsPHz/DwP6dsXPXQSwKnMa+3J88eYaAwBWoVr08Rg7vgx69RqFRgxrY9fe/KFqkACZPHIre/caivXdTBCxYga6dW6OD71dsQs+XNzdatu2Lndt+Q/78eVG/UWfs3b2STbhzZo1lX/GGY/uOfcx6cefOfcyaswTHj/6F9h0H45clM1kEUNPmPbBs6Ux45M8bDwhZc5ZHR9+vmJXhwoWrqFe3OqZMGhpf5/yAP3D77j38+P14fNmyF9q0aox+fTthybK1WLN2KxrU/4JFINEoP3xwI4OPYiUb4NsRvRm4zJm7FJvWL2Sh0MsW++OzzzyT7e+PFjBYEwQtZKiUJQaXivDwrARZoGdWxy0IqVOYn53+FDAtUVKS95fkvCbq1/rYzKg//X0LhOFvie0dn9yXNJ1rTH3J1Z2StiXW7sSu8145gUJIkxDMJGuLAMi0d70+ioEAwV0PCDoOCMY8i7YCCH/vXI6Qew9Ru54v8rrlQseOLdGsST00bt4Ntb/4HDlyZsWVq7fxZbN6ePosFH7TRrL9SF6+fI1BgyejdetG7At60JDJqFDOCwcOHUe9OlXR62tfBghtWjXCTMpgOm0E+1onR0gy3zdq2g1ng3cwqVq06oX/bV6WKCCQn8Tr12/Y9Tf9tYv5LXTsNAS7gv5g57bzGYif5k6Eh8dbQEi4xEBlylZohvNndr4DCG+iojBqZF80btYN343qx3wp/tq8CxQ63bZ1U2z6ayfLh0JA1KxpHXxWrA56dvNmSw3kxNind0cMGjIJu4OWG9PdyZch6GaAoGaA4OJSHvk9K3NA4HsxJD92MmYJMwECrd6RCzB9GX8w95k062VMmd+5qwQC6aUh7URmVTBFKw4IqR0stgQIdC+bt+xGx67DMNt/NLJmyYK9+47gh9ljMWDwRLx6/QZLFvoxc//8nyZh3frtcHHJjMuXb6JN68YfBQSfds2wb/8xti/JtCnD8O1of/bl7ttpyDuAsG3LL2jbfgD7midLA1kv6KhQuQU2rluIs2cvY+DQybh6cQ86dR76UUBwc6+CeXMnIVs2Vxw/fhYH/z2Bg/vWfgAIlFxt7Lg5OHfhKmbP/A7jJ/6Axg1r4XnkSwViGtTE8FF+OHF0MwOaL5vVRZ061TBh4g9YtyYQPh0Hc0BI4kEQZPZWNv5QPMx5JkXjFcvoJc0DCBRyp4+OgixJbL2TfTeTWY6FTPIjXgEdOUQpfghssyXaOUYAWwumZ9P4gwOC8VolXtIWAGGaX0B8BAM5340ZNweNG9VEk8a1MWzEdGZZaN2yMS5fvQn/6d9iw8YdWLdhO8qVLcH2EKFtyqtUKccyfy79dR0+K+iBS1dusgyjDerXwKLFq1CzRiUULfoZpk2fj/MXr8G3/Zfw9WnBJuMf5oxj4vjPWsT8Dtat34ZtO/axzKSGEMiVqzZj/aYdKFakILJlzYKve/rg9+UbMWHcYHYuZTDt2aM9cup9EChUsn0H5W8ULunmlhODBnRByRJvly12BO1nu6O2bdOE7azqNyOQQUKdWlUwelQ/bNwUxHwZCFTm/vgL20iN9k4h6wJFN3TwacF8Jfz8F2LieOVaqT64BYEDQqoHUYaqwDyAIMl2gCBCG0tORWybQeWg2GLK1GjSl3GGEviDm6HcBe9YWdj22CLUavpv4hksE1eEA0JqR4otAMLH7oE+6Jh1iTnJvT1oAk5pngJjzqWt22nLc3Nd09h+MqZtyiexhUKpOSBwQDB2sH4a5cwECJIakS+iMHXSdHh6euq/hCkKX2QbiRsOerbf31FAedyNQ4iPnc94RH8hY8ol592QWF3vj4mP38/bGt6WY7aWt4oIQEx0FKpWq4r6Db7ggGDlh85UQAh9fhf37+5Az+7NlVwfphlwrXx3/HKmKUD9KQKCBiAfhLV/I7NLOXh6VlHCvrmToinrn6ZJz0vbqgLmAQTKThYREYPAgF8wceJwqNSxgEzLDColtviTPBIihgz6OlLCpQxOigIEiLh37wFOn76A1q1p0jFFK25BSO2wMhYQdDoRoigjLOI27t/bjW6dmzJAUIJRDP3MI3ZS2x9pe74AmVlCdeyjhjkpupZFgc8+Z1kXOSBwM3Dajs80ubrlAYEerE/uYDOPPvkKRRqwaYSsd4oSBAZ0SLKAe3fv4+zZC2jdphkEthxj7MEBwVilkipnLCBIEvmHSHgaegtrVk1BqRJ5GPaSfSw+NNUUtkttw/n5FlGAcsKAMssCOHsuBC3bDEfRYrXYs0zLfzxRkkVk55XargIcECzWN2zCEJkVWifJuHXrFjRaiaggPhV11qw52N9OnTiNNm2bQBBNgSkOCKntO2MBQUluJeFZ2G2cObUWzZtUIe87iOT0rV+rJ3uQwfk0te3i51tfAbJ0ytAAooZZEHYEnUDBwg1QuEhNDgg8zNH6A9I2rsgBwRL9wIKLaOKQlARSlIt+8sRZqFixAkQV7SQnsSWHx48eor2PL04Hn0WrVg0hqDggWKI/UmtBUEBPQlikwQehmVJlwn1HWOIqnqLcmv1n7muRzxT5INB/aYnBNWt55MtfGYJAy6XcgmBuvXl9Nq8ABwRLdNFb73M1YqI1CA4+j1279qFX7x7I555b8RCXgcB5AfBu74szwWfRsnVjbkGwRGd8pE5jLQjvAsJ29Oxh2BiJ7amphwX6jylusowwPnKOoT5Tkngl9CNLiUuwqe1J7h6MSByWpAbvd5wxbUuuPR/TlBaMCAQoEkvEqtW74ZK1PNw9qkBgv+eAYOXHk18u7RXggGCJPmCAwAyVKty6GYJ23j3RqFE9vHr1EgsX/wRZp4GgUiGAAMG7Pc4En0PL1rTEwH0QLNEfplkQ+mLa9D/gqM6cIKpE9daCcGcnenZv8aEF4ZN1xrVmj1n2WswHAfROFNleDAwQ8n8OQaCEURwQLKs+r90GFeCAYJFOkQW2uxyZKyMjY7BsyTrcuHELPh3aomH96swSLeskBAYuRNu2BAhkQeCAYJG+MNaCABnPI1+gvU8fTPf7DY4qFwgs5I1yEdAEISHseQju3yVAaK58+bMlBmu3ml/PMgroU7br92JYxaIYysPD43Oeapn7IFhmyNl+rRwQLNJHtB5NkCDGITw0En5+C/D0aThafNUYnTq0ZnML+SAsCFykB4QzHBAs0hEfr/SdJQYAzyMj0d6ntx4QXBNElZAPgoyw5/dwP4TyIOiXGBL6IKRB+/klzawAT5TEEyWZeUil8+o4IFiiA2V60ehkyCodbt+6hy+bd0KRoiVQoGBeBAbMZJkTOSBYQnnT6kwaEH6Fo8oACFRKrSwxkAUhJAg9uyfipGjapXlpW1SAAwIHBFscl2nXJg4IFtGewuIkGZKggSQJePLkFdat/xO9endCJicHiKIKkk6HBQsWwbtNe5w5fRatvSlRUvqPYoiOjkZcXBz74lapKH7cdm3wbwFBZHkqyILQrfsQTJi4EA5qJwhCHNsvQ4A9sya8iXmG+3f2JuGDYJGRxCu1pgIcEDggWHO82f61OCBYpI/YfgsUMkUTjIDoWBU6+nZDzty5IepzydOatru7G7p374Fz5y4oYY7KH408bC8PAllFZs+ejW3btrG9AmizHVs+3gKCiiU9kmQJFy8+hLtnJaighiDEKBtqSSoULvwZ+g/uitCHR9Cz+1fKbfElBlvuXtPbxgGBA4LpoyYjn2H7gEA7vh04+B+qVimPrFldzdIZ0dExcHJyNEtdiVbCAIF2YaKQKQFxGjs8ffYUOsRClAXIOnJgFOHi7IKXL6Nw9vRZtMoATooEBCNGjMCkSZOQOXNmBgkp3VTIcp3ztuaEFgQCBLIgdO46CBMn/QwndRYGeGzDMZ3ixf7q9WPcvrMDXzMnRQ4I1ugjq16DAwIHBKsOOJu/mO0DwsVL11GnQUeMG90fI0f0SbWiy35dh7g4DQYN6JrqupKsQO+kCOYRTS7AduxrU4IWZMym8EclmZIKDx88xqmTZ9CqVROIqvRtQSBAGDZsGPz8/ODi4mLTcMDmd2WWZzBHm2hFRr6Ab4cBmDzlFzionSHqU19TJkXaJ+NZ+F08vM99ECz34KRxzRwQOCCk8RC0scvbPiAMHDwRxYp+ho1/BmHfntVwcLBHTEws5gf+zvaRz+OWE40a1kShQp74efEqXLl6E717+aJC+VJYunQNsmRxxaF/T6Bu3aqoU7safDt9A0cHe/yydDYO/XscHTu0ZH3yx4pN6Nq5Ddau/R9evnoDF5dM6Nqlrfn7i81K+qx7goCQew8QfPoc2rRK/3sxGABhxowZcHU1j7XH/B2QmAWBNl6S8Pz5C/j49MO06b/r8yAY8lLoMynSbo7MSZFbECzZL2lWNwcEDghpNvhs8sK2DQhPnoSiSo02OHpoE3r1HYPA+ZNRtEhBdOo6DK4umeGRPx9mzF6ELZsWY/PW3Xj18g3q1KmGaX4BCPrfb+jbfzycXTOhk29LTJ42D6tX/IRFP6+Ci4szxo0diG9H+ePPjYtYzzRo0gU7t/2OajW9UbRIAbRr2wzt2+knAnP2HQcEc6qZqrpSlkmRA0KqRLflkzkgcEAw1/jUaGIRExMFF5dsuHnzAjw9i8Le/sN1bZ1Oi6tXzyBvXk9kz+5m9OXJBP3o0R3kzVuAeb1b5rBtQFiwcAXmzvsF474bgP0Hj0Or1WLB/KkoXrohzp7cjnz5cqNkmcaY5TcaHboORcsWDZArZ3bs+ecw+vTuiK1b9mD8uAH4qkVDNGraDYMGdMGpUxeQJ28u+LT7EgMGTUwUEA7uWwsX58yWkZwDgmV0TUGtHBBSIFpGPoUDAgcEc43vBw9v49rV04iMDEOmTM6oU6c1Ll8+iaJFy0KrjcOjh3eRLXtu7N27AdFRb1C2bHUUKFgCEeFPkSNnXtjZ2cHVNTuDjIcPb0OttoNGE4fo6NfIkiUHtm79DR4ehdGsWRfcuH4ORYqUYV7Wjx7eYed5FihmhluxbUBo+mUP1KldlTknvnz5mlkG9uxaiWYteuLEsc3I754Hpcs3ww+zxqBDl6GYO2ccSpYojODTl1Dl87IYN2Eupk0dhsaNaoHq6tenE4KD9YDQ/kv06vMdtm35BWSp6Nx9OLMg1Krrg+NHN5tB2ySq4IBgOW1NrJkDgomCZfTiHBA4IJhrjBMgzJ41ENmy5cLUqcuxatWPKPxZaRw9FsS++gsW9MKFC0eRM0ce2Nk74uHDWwgJuY4yZapDExfDIKBKtUYICbmG7duWo1On4QgO3o+oqNcoXboq+/nx43soWbIySpSohGPHguDpWRzZsuXG1avBGDTI3wy3YruA8Pr1GzRo3BnHj26Jv8/a9Tvgqy/r49atEDx48ASenu749Y8N2PbXMrbEQNkKu3ZujZHfzcRfGxdhwMCJmDrlXUB4+PAJDv57HHNmjmGgMfa7Adi4MQixmjjs+N9vqFXXF8eP/mUGbTkgWE5E89TMAcE8OmaYWjggcEAw12AmQDh6JAjOzlng4ODEJvru3b/D5Mnd8cUXzVCr1lcI2rECOXPmY9v7Xrx8HHZqe3zxRXMEBx9E5swuqF5dAYTLV4LRpnUf7N69DpKkg1epKggOPoC7d6/is89Ko3fvifD374+qVRugYsU62PfPJrT3GWyGWzEXIOgQERGLBfN/wcSJwyHaxQEy7YBG298aPPMT7kpHTU9qdzbltp4+C8ejR09QobxX/I53t2/fw4uXr3D9xh1kcXWGSq1Cj16jsHHtQlSqWBoHD53As9AwlCtTEmXKlMCRI6dQrFgh5MqVA8dPnEUBT3c4OTlg776jqF3rcwYZFCXhVaIwa03FCmVw9Fgwan5RKYld9t6X3Ngd8xKW0+rrpjBIUXFSDD6PNq0pUVL63qwpwzspsu2euQ+CGV48tlkFBwQOCOYamWHhj/Hg/i14eVWGv38/tGjRHf/+ux3lytZAlqw5UKpUVZw88Q9bDqAQt9DQh3j0OAS3b11CuXI12NJCdMxrVPm8Hh48vIPGDdth8dJpbKmhUeMO2LF9BewdHFGjRjPs2bOBXcfNLT8KFy6Ns2cPMwBJ/WEJQBgB0U6jBwRqoSmTnnF31L7jIOTMkQ12ajWu3biFvzYsZnH3tn9Q/gODHhTJIOBeyEMEnyZA+DLB34y5E9tLlMQBwZh+42VsVgEOCBwQLDk4ybEwsdSy7DtakrBq9Tzcf3gTI4b+ACenTCwWPmF5yvdO/5+mEInmEn2a2qTqTf29WAIQRuotCMoOeCzZjJkPSp4UHv4cuv/f8ChnzuxwcnQw8xUsVR1N6gbLCl1DxP2Qhzh1+izatGkGpPNUyxwQLDVueL1WUYADAgcEqww0/UVowlepKHMeIOpT0rNdgNnP7+aoVyCAjA0yZIEyw1sjh725AEGLsLAYLJj/KyZMGgGVmpYY7CCwB878FgRr9qF5r6VYDZStggW27/z9kAcIPnMObSiTosqU1MTcgpDavuE+CKlVMIOdzwGBA4I1hjSb5GUZoihAp5Ngrwa0GglqtZIgh35Hf6NDgQjla5t+r1aL0Opo/iC7g6UP8wCCRhuHsLAodPDujlxu2QFRq+xFwL6WrQE6ltbJnPW/BSba1TEmJhqt27RGr16dlNTMRh8cEIyWKomCHBBSq2AGO58DAgcE6wxpBRAMFgEVfUhDZnH8arWagQD9TVRpyU+NwYO9nQO0WsroRml4BUhWmVfNAwg6SYPwsGj89P1iDB81EKJK76QoWyp/g3V60TJXoWUXSu8rsn0CHz98jJu37qB1qyZQqU2xtnBASG3/cEBIrYIZ7HwOCBwQLDukaf2A/A1kqNQy3rx5g5CQW7hz+zpcnF1Rp1Zt6HQiJFmLZ6GPcJnyKDwPZZOFk1M2FC1cEgUKFIeDAyVcUil5/ONB4W3aV/Pdg3kAgSIvwsOisGjBbxg/aSRUzEmRrCKkhylmc/Pdmc3WFA9NAmQJCAm5j9PBZ9HWu0W63+6Z+yDY7KjjDTNGAQ4IHBCMGScpKcOWFNQStFod7FTAi1dhWL48ENWql0W9+jXh6OCCiFAg+k0cNm5eCXuHKHT0bYOcOXIwK0LU61j8e+g4tm7Zi4EDRiFHzoJ6a4MAWaT1atoZkJb0zWm2Nw8g0DJJREQMAinMcdJwqNSxb53xuA/Cu8OJJ0pKyeNlkXO4BcEisqbfSjkgcECw1OhVnAt1bAe4sLCHWLlqMfr390Wlz8swRz1Jq8aNq0+xds0GlC1fCK1aN4aTox0E2omePiUhQKcFrl+/jQWBK/Fl805wdy8EiHaQ2W71inWCOf6Z7TAzIAQoeRDeAoKKWxDe7ysOCGYbvamtiANCahXMYOdzQOCAYLkhTa8b8i2Ixdp1S9Cz51coVrwgIMdChgraOBHz5y9GjhzZ8XWvLpAkDcgkq1bZQSR/PllxUhRFEeHhLzHkmykYMXwi7O2zQZLt4pcazIkHAAcEy42HJGrmgGB1yZO6IAcEm+kK22gIB4T0BQhvHf2U8D+D579tjKb3WkFOibKEB0+u4OC/WzHT/zvYqekVpIMsqxEe/gIjR47BwgXz4exCSX0UnwKyINChWBEUyKA1h6XL1iJPrmLw8CgLWXZU8hEyOjBTACRL7qdRrqgREBA4DDNndEH+fHkgkxOdKQfzQXiDBYG/Y+KkYVDHJ0riFoQPZOSAYMrIsmhZDggWlTf9Vc4BIX0BgiQpkyjlEqAfE0tCZCujUAlgjMP2nWtQpkwetGzVgEUuQFaxtj94+BCHDx9Gx44dQOFtCgzoU/DGLxvQMoLMNmU6fe4S/ty4H+3b9oMMJz0gEISYyYZgAASCAY2IgMDhmOHfBR65c1GTTTpkiVItRyMw4FdMoiWG+FTLHBA4IJg0lKxamAOCVeW2/YtxQEhvgKCDDB2io6IsuOWxmcatLEGEFqvXL0SPHl+hyudeiqOerIJWJ+FZ6FPcu3cXVatWUQCBTfSKX0GCUAXWGAk63H/wCKNHz8HAfhMgqpwhM8uCFgKbvc0ACZSnQIhTLAhaEUuWfIepk32Qz81NuZYJhyzrEBMjYGHgb5hEToocEJJWj1sQTBhZli3KAcGy+qa72jkgpCdAoK9vLW7euoAly+ahcKGi+s1/dMwZkCXisaGDlgoEWcTN26fhN+NbVKtaHoA9m9AlaPDo0WPcvn0XtWvXUDIpSvqJnpnzE0745I6oxe0799C1yzcoU6oWJJZwSAtZpPBBE83/SWpE6YklyIIW0Doi+NRfaFCvJLI4Z4WWljtMYBC1qEPfPr2weNHvmDBpCNT2OkCiMEduQeAWBBt6SN9rCgcE2+2bNGkZB4T0BAiAKEu4cv0sLl06jTZtfCCCJjWKq6cvXBPt4FYYcTodcPrMfmh0TzFgQHcILCkCoJXi8OxpGDZt2oqhQ/pCEGVIFK4oC8xBkR1sQlb8EGgfhoMHj+B08G3Uq+MNyPbMeiAJZKVQfWBxSMmtkeOkRPskiFrIGhUCA0bA368P8ubOD1k0MXeBrEVE+CssWkhhjnpA0HFASLRfuAUhJcPVIudwQLCIrOm3Ug4I6Q0QZFy9dg4XL51Bu7ZdANCkY9jLwLbGofJhL+NNVBjWrFuEmbNGw8XZgfkh6GQZLyNj8M03IzFz1iTk93BTrCGyqOzRwKwIhn8AgcZ0v3moX7cNnDO7QxDs6Vuf3bBIlgoz3DpBiETWA0FHhhoEzB8Gf/+eyOeWB6LK1CUGICLsFRYELsWESUMVCwIHhMR7iQOCGUavearggGAeHTNMLRwQ0hMgUPS/FleuBuPylfPwbtMNkCnDYMIjoXn+/Z8Nn+UGk7x+zf/t5/pbJ0H2O2POT6ycfk8FmudFCbIcixOn/oFGE4a+fX1Z+lwBjoiJBvbtOYVjx/dh8tSRUKnU+ggGJfWupFHuiuQAACAASURBVKM8/CqWXe/vPf/in73B6NKlHwQ4Q2L+Asp9K3aTj923AR8S3veH51AsBEWGkFVC1skIDBiGmTO7wt3NDTDZgiAgPDwKCwKWMQuCyl7LASGptyYHBJuZTzgg2ExX2EZDOCCkN0DQ4Mq1YFy+fA7ebbpCQCb9QDLRBG6F4UcYwPZPkLXQaF7j4KFtiI56hiHD+sLVxQUx0SLu3orCv//ux9kLBzBu/LfwcM/DtoEmR0xREBAdpcX69Vtw5coTeHt3hb2dM2RKlJRg4yY1tGaxIMjkGyFoFbuEVsB8PSDkz5NLDyDGi0Z7R0Q8pyiGpZg4kQPCR5XjgGD8wLJwSQ4IFhY4vVXPASE9AQL5INASw1lcunwW3m3eLjEoX9C2dZBRnr7GDcsGsi4KJ0/9i7PnjqB0uYIoVrgscmUvA0nW4fad89izbwcqli+KvHlzQKUS8erlG5w6dRmumdzRvHlb2DtmoQwK0EkiBFHUbxEtw0Tr/0dFksQYJauCRo35gcMx078LFEAw7VAAIYoDgjGycUAwRiWrlEkxIHRrro8+ovepwWJnjoU/q9w2v8jHrHvso0mN1Wt2w9m1Ajw8KkMWFGdrCjFXscy3Mdj590p4e9dF8eLkPG+bhyCTjdiEQ0k8JCM0NBzdug3DjBm/QmJme5ombG+AK4BwJgEg2LO7ZWmHbay9BJ/UG/HvC9ZSHbSaGLx4Gcr8CLJny8N8EiRoodXFITIyDDFvXjEfBUd7e2TLlhtOTq4s86LEwiANoZBvl0dEc+VBYNGVsUqEpUaVSkCQ9RaEZZg4cRhUatrNkTspJvpockAw4Y1l2aIfBQS7zGQT1DsOq1kis7DnIbh/dyd6dm+uNIy9TxMCgm1FVllWvQxYO4veioMkAqtW/w3nrOXg7lEVIiglPgcEm+tx2hD3yrUzuKy3IAgsioHlJrQ5QLA58YxqEE+1bJRM5izEAcGcaqaqLtMAQUbY87u4H7INPXs0Ua4rJQAEVhkHhFR1SJqeLAAUWUYWBFHAqjV/I3PWCsif/3OIZEHggGCDFgQOCBZ+ZDggWFjgD6vngGB1yZO6YIoA4e4ufN2tufKJwv7H8N6kr0/Ton9sRgjeEMXvStbp+9AOq9fsg7NLBeT3rAiZYtH5EgMHhE/vOeGAYPU+54BgdcnNAQiUoyQ0IgQP7u5Fj27NWTp0cix+eyjRSPxIrwoQHEQrq7qSA1av2gvXrOWR37MSdIIagiBxHwRb61q+xGDpHuGAYGmFP6ifA4LVJU8tIEiSik0QT8Pu4M6dbejWrSHzTuA8YDNdaaaG2DMjkCDZY+263ciZuwI8CpSHTrZjye24k6KZZDZXNRwQzKVkUvVwQLC0whwQrK6w0Rc0folBBG0cFxH5AAsXTYKjY/yZ7zkl254V1mgxeEG2d47imAo8exqFb4ZOhXv+4ooLP7cg2N7g5oBg6aeWA4KlFeaAYHWFjb7gxwDBXp0ZIvMpkCHLSpixJMcgNjYWEkvDQrFUNHEYIoy4g6LRwttkQXI41UAgPwSW7l4Fe6esEEWKxqLwNL7EYHPdxgHB0l3CAcHSCnNAsLrCRl/wY4Bgx8Ic+cEV0IfVc0CwvceBA4KlH08OCJZWmAOC1RU2+oIcEIyW6pMuyPLucEDggPDpPQUcEKze59xJ0eqSJ3VBDgg20xU23RAOCLaaSZHnQbDwg8MBwcICf1g9BwSrS84BwWYkT5cN4YDAASFdDtzUN5oDQuo1NLEGDggmCma54tyCYDltM1LNHBA4IGSk8WzCvXBAMEEs8xTlgGAeHc1QS2KA0K7d15g2bTHUzEnR9pZdzXDbvAoTFaDddmkoUN4LQaKNm2Kx6+/18PFpyDdrMlFLsxbnTopmlTORyjggWFrhD+rngGB1yY294OvXrzF27Di4ueWDKGSCIOtDFymUkfWbfg8YFtmoz5rI/pbwZyPLsWIJdnd7/2f6+wd1J7hOYuezWcyYtiVWt77dhuyQSd5fMm1IeL6xdRnd7mTuzyKaklZafd8DWp0ElVpEXFws+vXribx53YwdXlYvl/F3c+Q+CBYeVBwQLCzwh9VzQLC65MZeUKfTgf6pVColjTI3IBgrXQYvRxCoDAZabqBNHyWZxokIkfZpsNGDA4KNdkz6aRYHBKv3FQcEq0tu7AUpWyIdkkQvf0MSJGPP5uUyrgJvSTEuTgtRpLFBBh4VB4S07HS+xGBp9TkgWFrhD+rngGB1yVN8Qb73Uoqly1AnJrlLJ4GD7ZqZuAUhQ43CtLgZDghWV50DgtUlT9EFDWvwKTqZn5ThFEiUA2wXDkh/DggZbhRa+4Y4IFhbccXZjV4stMe8gJB7DxB8+hzatGrGNoQx/qB1UQk6Efhhzmp4lfJGXvdSkNU6CDoZItt4RoZG8xJz543D4iX+yJrV1aKe+bR+P2zYMMyYMQOurq7G34rNlaROYhsu8IMrAMiqxC0Fts0HHBD42E2tAhwQUqugyedzQDBZsrQ5ga8vpI3utnpVG6eBRGTjFgRbHUvppl0cEKzeVRwQrC45vyBX4FNUgAPCp9jrZr1nDghmldOYyjggGKMSL8MV4AqkUgEOCKkUkJ/OAcHqY4ADgtUl5xfkCnyKCnBA+BR73az3zAHBrHIaUxkHBGNU4mW4AlyBVCrwaQDC1TO4fOUsvNt0gQAHJpnOkPI0lQLy0zkgWH0MvAMIIkLu3edRDFbvBH5BrkDGV8B8gEC7UFBYj6yCKCtZoujQSoBIER5pdcg6XLl8AZevXIK3tw8EKI2RWQPN71Wqz7TOrsE25tBn4JYgQSdpoBLtWHia+a+cVgKbBxAk2CHs6XP88P18DB7cFyq1IXd9WiolKZ3I8umLEESB9SGFBoqC2iLjx9RelGUZ9+4/wJNnYWjTqjEEkYc5mqohL88V4AokroCZAUFiL1MGCKAXlcxeWDop7cJ9BFnAw4cPEHIvBNWr1YQoKm1RXqPmb1fCGlWsfmUi0QkaCCoJss4OskTpNdNy4jPn42AeQNBJdoh6HYXAwJ8RGfnKEl2TsptmhKfAJE3GoooyA2gByTbyp9MIc7AX0LZta1SoVAaCYErsPc+DkLJBwc/iCnwaCpgVEOjVKdPLVJahiY3E6TOHodW+hkxfYPR7w5xomEUNn9fsczvBfJ2wXGI/G+Z2Y8pJKmg1Wvb1Z6e2h0S7ZLCL6QDD11bCz/6EbUvuOom027C9K92uSNeQ1JAhQhLiIAk62IlZ8Hnl2rB3yJJBRph5AIHGCIGkJMnM+sQ2uomHuJQMnI8NqsT+lljH6yFAVuH1qze4fPkyKletDMhKLvW3FGPMQDb2mqY9DJJMG7/oIIgq2NnRc8YtCBnkweK3wRVIcwXMCwhkjdVPvo8fXcHWLUvQsH5F2gDbRAIwZZZO6ks8wawvELgQt8gJJp6EL+LkSCMpovkYQdD8oYNEcCSIkEXa7lPAsaNX0bxJD7jl9VIy4aX7w1yAICk719ImJrakiaxmVrHHj59hR9AO9OzVAwK0EAQFZNL6YCPznd1zTWkUtyCkdf/x63MFbFkB8wECZKggQQsVS/f66MF53L/7Lwb1awlZ1KSRBjJkZiUwAMrbt6lAqS8Ne7VbqHUy88tQQERi7VBh1YrdcMtdBbndKnJAsJDuZq2WWb9UDBCCgrajZ28FEFiv2gIhpOpmOSCkSj5+MlcggytgRkDQMfc/AgRy7CJAeHR3Hwb0+yptJfzYS9zSm6mQ5UR/fVpeABywavkeuLlVRs685TkgJBwZDNZM+fq1xrAikwY53trh8eOnCNqxQw8I1Jcqi+5JkLK70ztVGn0yBwSjpeIFuQKfoAJmBAS20g4J5Jon4/HD83jIAKGl3r8grUIZkopWoK97czkp0kSi1CdDjXv3H2HL5l2wtyMHRWY/gEYjoVHT+jhx4ipy5qwFN/cSHBDeAQTLRJWk7pmmPiXLjwIIO3bswNfMgmAAhNTVbv6zCRBMqdW6gHDlyhVs2rQJEydOxPr169G+fXtERUUhU6ZMbPlPq9Xi9u3bGDJkCNatW8c2a6LNmyZMmIA5c+YgJiYGb968wT///IPWrVvj0qVLyJIlC4oUKWLKTfOyXAGugJEKmA8QaE2WHKZYCJ/EAOF+yEE9ICQ08RvZsnRWjO6cjjgtcOLkBdy4EYKaX1SFCiJExOD82duwcwJCIyORO3tz5M5X1Aa/mFMiunl8EFJyZaucow9x/BAQ+BKDqfqfPn2awcHcuXNx8OBBBgbPnj2Dg4MDcwClyb5+/fro168ffH19UahQITx69AghISGoXLkyXr16hapVq2LhwoVQq9UoWrQog4Pu3bub2hRenivAFTBCAQ4IRoiUfBGK31C8x0PuPUbAgl+gjZPRqXM7VKlUAYIQi+ATN/D8VSgePnuGXNmaIw+zIJj0uZd8M9KkBAeENJHdLBe1rgWBAIH+bd26FdWrV0fx4sXx4MED/Pfff3BxcYGfnx+zCkyePBktW7ZkQNCxY0f07dsXjRs3xogRI3Dz5k0cPXqUWRLon7e3N0qVKmUWNXglXAGuwLsKcEAwx4iQaVlFx+b7Q4f/w7jxs5Ere240alIN/fr2YhaEMydv4mnEEzx7Hgm3HF8hd95iHBDMob2l6+AWBGg0LzF33jgsXuKPrFldU+x7QXBw48YNNG/eHFOmTGFLCLTskD17dubwGRoaiuHDh2Ps2LEMECIjI9GtWzcGCGRRIKvDwIEDcfXqVbx+/Rr29vY4d+4clixZYulRwOvnCnySCnBAMEe3M0BQ5vvQsEisWfsXYmMk+HZoDk+P3BChwanjNxH+IgyPQ8PglqMlX2Iwh+7WqIMDgtkA4f3uIr8Dw0H+B4b/P3r0aEyaNIkBhCRJUKkoMkpg/gh2dpSJ9O1Bv6O/84MrwBUwvwIcEMyhqUzJkMhRUcDBQ0cwdqwfXJyzo71vY/T6uhNEaHHqv1t6QIiAW44vkdudHKv4EoM55LdoHRwQLAYIhn4jMIiNjWX+COSLsGjRImYxKF++PDw9PZmvgiGkVBQzQu4Qi45YXjlXwGwKpFtAiImJxYaNO1CvbnV4eORlggQHX8ClSzfQtWub+BfKqeDzePIkHC2+rMe+UOickHsPUbNGZdSoUck8Qsrkg0CHiNt37yMwYAlLp+zboRWqVS8PUdbh1ImbiHgZhkdPX8ItR0PkdudOiuYR38K1cECwGCCQdYAm/ocPH+LHH39kMFClShU4OTmxiIZbt27h5MmTaNGiBWrWrMksBQQIBktD+s9DYeGxy6vnCqRSgXQLCEeOBqND5yH4ukd7TJ08jMkweswsfP/jMpw/HYQypYsz82SVGm3gYGeH/f+sRa26PsiS1RWlShbF9h3/YNiQrzFoYNdUSkin69PbsnTBKhw7Fow7t0PwRa0vIIhRLKPz+bN3oHaS8DRUi9y56sItH/dBMIPwlq+CA4JFAIEmeY1Gg6dPn+Knn35ikQglS5Zk0Ql00ORPZV68eIGZM2eiVq1aaNas2TvJqfjSguWHP7/Cp61AugWE8ZPmokI5L8wL+B2HD26IB4QjR06hbdumGDm8N06fuYTGzbqjbOli+P237/FZsbq4dnEvihQpgDNnL2HXroP4bnR/9lWSuiMBIMgqBgcr/1gBqO0hqggQRGhi7fFV+6a4ePERcmWvg7welGqZLzGkTncrnM0BwWKA8PLlSwwdOpQ5LObPn589hwT19F8CBPpH/z86OhozZsxgeRPKli2r2Or0ZawwAvgluAKfrALpEhBiY+NQr0FH7N2zGr16fwfvtk3RzrsZsyBUKF8KG/8Mwl8bf8ao72ayF8z581ewK2g5xoybg3/2HUGFCqVRvWoF+LRvDldXFzN0vj7PA1tqIBMoff3Q/K+GIEZDoElGlwk6VTRWrd4Jt5z1kZtZEFILJmZoeqqr4GGOqZYwzSqwbphjwtsk68CJEydYVANN/AbnQ7Zfin4ZwQAMZGmgcMgFCxawUEhHR0cGD6kH+zQTnl+YK5AuFEiXgLB6zRZMn7EAvb72wX/Hz+DSlVu4cHoHxk+ci69aNMCsOT9j/ZpAtGnXHzP9RmHs+DnYFbQCGq2GJU/837a98Ju5EIUK5sfmTYvN8KJJmJGRXrrsG4dllRRUsRB0ImRdJsA+GitWBiFXjgb6JQYOCNZ8SrRaHa5cuYHSpYvj1q17yJ07B1xdnT9oQlRUNI79dwZFixSEp0d+1pfGJEqKi4vD06cRyJUrGxwdHax5aym8VtoCwrx589CqVSvme2BYVjBYDei/pCeFMhqAYdasWejZsydy587NLQgp7HF+GlfAFAXSHSDExsWxZYMG9aqjYoXS0EkS+g+cgKBtv2Htuv8xQPj38Em8evWarXF26dQGo77zx+yZY9B3wHj8e2A9nJwc8eLFK9Rr2BH/HdkMe/t3Q6dMEfBt2ffTNsuQZDtAFcuWGBgg2MXoAaEe3PKV5BaElAmd4rOoz3v0HIl27Vsg8vkLdOncGkePBaN8OS/EsfXwMDg6OODof8EID4tEhfJe8PIqhtu3H+DVqzc4cyYYI0YOxuPHj/E84gVCwyKQxy0Xbt4KQaOGNTF2wvdo27oxKlUsg8tXbjIAobwB0VHRePjwKWrXrpLitlvmxLQDBLLszZ8/n+U5oHBG8ieg55X+UUplAgSCA3JYNIQ67tu3D+XKlUPOnP/H3lnAR3G8ffy3exfFCVG8ULRUKBSKlAJ/oC0FikspUrRFShJcgoWEQAyHYsWtWHEotHgFimspDkEDIX6y+77P7F1yCbG75GLM9sOngezszj4zu/OdR0sw/wTug2CdWcGvyiVglEA2AQLVWiZ7uzllnNme4rU2t27dRfMveuDc6T1wdLRn5/hMCoYkS9BotGjVsinsbG1R79OO2Ll1MfuAjxjtjy2bFqLlV31R0NEBDRvUxoFfj7GFIXDGWBMNgkmJ6CR9zUi5ZwpzNIpV8UmQqFSwqIEoEyDYATZarFy1B84lPoGrO2V/4xqE7HwVCRA+adKFaY5WrwjGnHkrULXK21i0eB0af1oX1atWwm+/n0DTJvVRvFhR7Nj1K3bu+Q3DhvTB+g3bWQ2GWbP8sGfPQdy4cQddOn+JI0f/gigKqFXrXRw99hfsbO2YVoK0EOcvXsMnDWoz8Ah7/BTzZk/OzsfNwL1yDhCoc+SASOYCCnGk+gonT55kvgiUQpl+d/78eQYIZIKoUKECgweCBoIDcmbkUQwZGGJ+CpdAJiSQxYBACCCwmgwJtRgGtjYs9FnjkEe7i0ePnqJcudIJjx0dHYNnz8KZWrdQoYJMI3D931t4qzydI+Dx46coW7YU+xDdvHkXd+7eR/lyZVC+fGn2wcn6QwEKKl1FRZxE5psgAaIaK1fthbPzR3B1f48DQtYLPs0rEiB07joYvlOHw9dvLsqVKYXJkzzRruMAfNmyCX4Y3BdTp83GZ80/RbFiRbBi9c/Yf+AIlv4YiBGjfaHTxiEkeCoOHjzKFqgeX7fDvIWrULlSeTgWsMf16zcRExMHvV5Cw4a1ceTIX0zD1atHB6xcswU+44Zk8xOnd7ucAwRa5CnJES36fn5+qF+/PgtxLFq0aIKDIoU6Uggk1V5o2rQp/ve//yVEN9CTcQ1CeuPLf88lkDkJWBEQLijFmgZSuef8X6wppWGQWIVH0QAIOkC0VTQIrrXg6srLPWdu6prfOjY2DqvXbEW/vl2xdes+OJUohr//voCyZUuipIcb6tZ9H3v3/o6qVd+Go6MdTp+5iDNnLyPyVRTu338ISYpH/YYNUOntsrBVqVG3zgdYtWYrg4KPar+Ha9dvoUSJ4qhapQJ27DwIlVrF8m2UKeOBP/86i89aNDK/01ZtkbOAQJUcFyxYgLJly6Jt27YJUQzGzIn06AQRVJOBqjl269aNhULypElWnRT84lwCCRLIHkAQqDzum3cohgYbiJIMWdBBFuywijQIrh/C1Y1rEHLNjJANqXoFHS1Jhm6R1keFJct/xq+/Hoe3d3+cPH4M333fHypKbEGaIaafovNFwBAOycxoWaMsywbx5CwgUJVGKvs8fPjwBK0BaRaMIY4kANIikLMiZVkMCAhglSCp+iOBg3W0f9kgdn4LLoE8IgHrAIIkI+zhBTy8fxx9+n4Gge2ks8IHIVm0QLp+AslHIXkf0vMtoPZptaHfp+W3QCGPIgTyvxB0kARbrF69D87OH8DNgwNCrnlHGCDQGGkhQwdJooXTBk+eRmDt+l8QHR2HYkWdlJj8uCjExESgefNGqFX7PYgqHWxEGYKkAsjnRCB4yDVPlk5HchYQNm7cyHwLPvjggwQ/oOR+BSRz9pbJMgIDA5lTo6urK/s3HuaYV+YZ72delYDVAOHB/XM4eXwNmjSpClFQ9lrpOymmtyDnVkBIud9Un4H2meSDQOkUdZIKv/56Dp82/poDQm56Y0w0CLIgQ9KrcefWY8yZtwyt23VG7dp1YG/nwJwRdXotnj17ggUL56NMGWd06fIlCtiz4WVQwQEhYwNLCz8lP6KwRXd391T9CUwBYcuWLfjwww9Rrly5JFqGjN2Rn8UlwCVgrgSsAgiUJejhvbP484/1aN/2YwigHVp+8Ng3T7yKkyIgMq7RQyersHvvKdSq1Q5uHjXyiUzyQaIkBghkGtBDkgWEPYxAYMA8/OA9GiXLeUAQKP0vzV9SfwOypENcvICfN61GgQI6tG/THCKZGsjMQBxMJ+WJI+c0CGQimDhxIgYNGgRnZ+eEFMvJxUaAYMyuuH37dpZJsXz58hwQ8sT84p3M6xLIYkBQdszklBh2/7zBSbFN3tG4ZvFosjBHlUbxQZBtIKv0WLlqP1xKNDTkQcgrC0lagskPgKBopkjRo9OpsHTpOtSp2wTvv18LkigbNGCGhZ9SZDItg4T4uBhMGDsCw0d8D1dnR8iiDipQVExegeGcAwQyGVDVxmbNmjEzQ2oRCeSDYDQ7/PTTT+x8Dw+CNoFHMWTx94pfjksguQSsAggCAcIDAyAMaK2oXd9ATJAkWwjqOAiSBFmyB9SUB2EfnJ2awNWjcj6RST4ABIMvC2FCREQcRoyYjNlzF8PeriAEtcGBMdmbQztgQZKxf99u3LxxEQMGfANR1CjKA65BSPdLS4Bw5swZXL9+He3bt09ItZy8IcmZDgIFLy8vZpagxEp0cB+EdMXMT+ASyJQEOCBkSnxpN+aAYEXhZumlDRoEEfj3+j1s3/EbvL1GArCFqE4py6YSww9ZQkzkSwQHzsC4sZ4QVXoIot7glJulHbTSxXJOg0APRMmQJkyYAE9PT2Y2SOkgORNMLF++HAUKFECnTp0SwIADgpWmBb8sl4BBAhwQrDgVOCBYUbhZeulEQIiMiMXte89QtXINxGsE/PvfHVZQiBYpKihEybacnIqhatUKcHEuRntbXDh3Cu/VqAqViqoQSnkow1/OAQLJk3wLbt68yVIujxs3LqHGglFjQMmoKDEaZVg8duwYxowZk+CrYCzqlKXTgF+MS4BLIIkEOCBYcUJwQLCicLP80jLzMZQlFXR6FTM1hIQsRPUaNVG7dm24ubkxm/eLFy9w9+5t7Nr9Cz766F00+bQu7GwlqFUy5daGKJLGIa/4luQsIFAWRTpu3LiBFStWoGTJkvjss89QvHhxUBKlW7duYffu3Sw5UsuWLdm/8+yJWT7x+QW5BFKVAAcEK06OtAGByj2ntJBk1+KSUsioJffOBz4IhjohsihDlkQ8C6fMfXPQ+qtOqFevMdMeGB3ljP+PjIiEv/9UtGzZAA3qfQBZ1oCieQVZxTUIGXinSKaUAIkWfNIkkCnh999/x+HDh3Hp0iVWj4GAoXnz5qhSpQr7PZ1rLAudgVvwU7gEuAQyKQEOCJkUYFrNUweET+Be8i3oZSnRQ54uxJLwUUidFQ9j0SxBy5xHZdlWyW/PEgTRz+bePx8AgkQruw6ySM6kDli9ejvKlq+Mho0+ZfIwBQQaGfJB1EsyoiNjMHa0F/ymjUTBgiRDJX4h7xQRyjkNApvuMkX3KKBqLOlsdEb09fVFoUKFkqo7BSEPydY677BOL+Ha1X8RFRULrZZ8XkQoMy/tlG1s3mYgE41xi5DRsnop3df0GildL6PXzkjpvLTub0nf0muTkhzNeR5j+4zeJ6PnUQ0kGmGBZS2WodcJUKtF6KVolC5VCiVLlkookW7O94kDgnXeY3bVVAGheEOcvXAVT58+ZcV8EvftlDdBUbta6xBYSmB7yEIcfaEhy3ZswZOgQbeu/WFrW8DMW+cHQFApclfpEREhY+yYQATMDIFjQUeIYkpRDBIbN1kvYv26VVCrotCp4+eQGfDlpUUsZwEhpYlGmoJhw4YliVYwc0Lmw9NpCVKWy9jYeHTs2AMf1WkEW5sCgDHJVz58av5I5kiA3mXK5KphYdiQ7QBZD1mMRFzsE/j4jEsAcQ4I5sjViuemBgguTo3g5l4Bkkw2a5MFiKFodsTQE4jEG7YUttDpNJjm7wMv70ko4FjETInkL0A4f+4Otm49jDHjJ0Jto0oVEHQUxSCpEPHiKQICfOA71Ys5KVLWUHNeQDOFncWnc0DIYoFa6XL0YaBQcRExMfHo3KUvxo8NgI2qKESRSt4bvxnKOcqhpKhW/p7az8bzTNsoO1EFSIw6sZR+Nj2PrpO8jfHaxvPM6UN6z5NWf4wh9SmlyDfqJOh3pueZ9i0lmeRmmZqOA/WT6snQoZju1Dbx2LxtLnwmeCt/N7NMOtcgWOmVZtMslTwILk6fws29smEhERLUrKwr1i5sxUwMpFLXKE8u20Cni4VfwDh4eU+Bo8ObDQh795zAgwdx6N2nPyjtskqVkslFAgGCCDI/6DFk0NeYOXMi7O1soRKzA/CyatJyQMgqSVr3OkZAEBATq0W3rt9hhHcAHOydyDZj3Vvzq+cdCbANplIsTtILECmFrxiL0H0lKwAAIABJREFUnTsXYPx4z4RS6eaEB3NAsOLwpw4ITeCeYqIkIlkjAVqrYwQI5GlP91GKSel0MZg2fRS8h/u+8YDwx8nLOH78KoZ5j4QMIu6U8iBILHGPLNkgLjYCE8YPRUDAONgQnXMfhExNXG5iSEl8xh0zEBurQZeu32GUdxAc7IuzTJ+JNW4yJXreOE9LgGBfKTjHTAwS1YXRA2IMdu5YiIk+IxM2ouZoODkgWHFSpA0Ir0cxKP5alkQSmPcQpon+6J46XbQJIBQ172LIXyaGZ880GDNmBubOWwy1rTpVDQLLpAgbHNy/BzdunEb/Ad2YsxgHBDOnT7LTOSCkJj9Fi8AAoUt/jBoeAgf7EtCLemVB4McbLgECBDJXa5XiPwQIVB9GFYNdv3BAyJWTIy1AcPNIKczRqEEwxw/YXB9alSFSQrHHcUCg7y45KRJt66DX22HB/DVo0LA5arz/PkSVMhbK0k8HOZUK0EuANl6D8eO8MdyrL1xdi0DWSxBZsiTrQ17WTHhuYsgaOWbHVRRNATkpdunSD6NGBMPB3gV6goO8Mt2yQ0xv6j2Y6ZimAq0h9IdMo5JiYtgxHxN9RnANQm6bG7k1UZLiFknhMMpPWu0brkEwqeZI4YuPn0RhtNckzFm4BI5FCjI5iVApfuSiUl1Qq5Wxa+dm6HTP0Ln9F2SsUQje6DOU2yZjiv3hgJAnhimhkwYNQtd+GDU8CI4OLuwt5geXAElA+ZonAgJFVQmqWGzngJA7JwgHhNw5Lq/1igGCYr+TZD10OhE3rt3B6rXb0Oh/LVG3zsco4FiQaQd0Oi0ePX6IdetWwNFRRK+eHVDAUQ2R3kuZ7H5Kie+8cXBAyBvjZOwlB4S8NV7Z21sOCNkr70zfjQNCpkWYPRcwxpILOkjQQq+j8FM7vHwZgwU/rkbYg8coW6Y8y+IXHv4cjx7dRe8+XfFR3Q8AKR4qCgohMwVj+Lyk8uWAkD0TLKvuwgEhqySZH6/DASGPjSoHhDwyYCx5FGkQSGHLVAGKf4bB1yA6WoMbN27jt0MH0aNndxQsZA97O4pYoDMMsdXGa9Ajcw2CxQPPnRTTEl3mAOHB/Zs4enQnm98UnVPj3bqoXLlmhsYqPPwxihd3TfHcQwd/Rr36n8PePvUka2Fhd3D+3Ak0/ORLnDixF02atMPRIzvQ6NOvMnT/nDhJkvQp9vHWrcs4fHg7k2GjRl+hdOmKrHvPnz+Ck5Nbil2leR0XF40CBZRS5dY4OCBYQ6pWvCYHBCsKNysvneAEblzZlSQrzC2M/Sgi7OFj7N6zG71792C5D2xEAgoTEkgCBXmFELgGISunkfWvlTlAoEVt0SIf1K//JbTaOAYLnTsNRqfOQ9Ls+qm/D2HpMl8sWHAoxfP6928Ef/8NqS6O1OiPP/ZhzpzRCArajvHjv8aCBQexdm0wevYcbX2xWXgHjSYewzxbYv68XxOu8OrVCwwc2Bh16jRj5sa//z7EnuXO7auYNXskli8/meLd9u5dy5yXW7ToamFv0m/GASF9GeWqMzgg5KrhSKMzBkKgVKWmia8pFbWkeAQ/fvQEe/btYxoEWdYyQBAEg1MiMyuYuotxQLB05LkGIS3JZR4Qjh7dgfHjl7CbbNu2GLt2rULvXmNw9uxRnD1HJbUX4c8/9mHvvnVo0qQ9vvlmBKZM6Y1jx3YhYMZmeLiVRWDQD4iPj4W39yyUK1cFRkC4ffsaftmxDGPHLMTp079j6VJfVKlSk533118HXgOE1asC0fvbsbh08U8sWOSDQoWKYsTw2ShatARWrpyByFfhKFCgCCvU1afvBFZLwNe3L4YMmYGtWxZBo4nD6X8Oo1s3TzRq1AZPntxHcIgXChUsynbqnToNgodHefasDx/ewpIlU+DjsxwREeHYtHEu2nzVB+vXz4ZKVOHM2ePs3pUqv4crV05j8eLJKFOmEq5ePY2FC39LGJTjx3bj4KFN7Dp07N+/HqVKVcC2rYtx8NDP8PPfADfXspi/YBweP7qHrl2G4uN6n+H775uxLIY9e4zA0WM74ePzEyIinmPTxnno03c8li/zx7Hju/Duu3Xx3XfTYGfnYPYrxAHBbJHlbAMOCDkrf8vunmxxN2SeDAt7jF27duHbPr0MBVHyUlGm1CTBNQiWzZGcapV5QFi7NhTt2/fHy4hwbNu6BA0afAE319LYvOVH9O07HmfPHsP16+fQp894bNu2BG+9VRVFijhh69bFmDVrD7y8WqFduwEoUKAQpk0bgJ9W/Ilpvv3QvHlnHD78C8aMWYjbt68gIGAQ+5l22OfOHcO3vcdi3vxxSTQIdK1pvuswYGBjfP/9NLwIf8wW2eDgHejVsw7q1f+C9W/evHGYP/8AS3vevLkrVq06xRZcAgAXl5KYMqUP1q87j3Hju6J162+hiY9FYJAnVqz4E5Urf8AG69q1f9C//6c4fPgVA4kJE7qz/nXv/iG8vIIZnGzd+iN8fJahd+96GDFiNvM1oufetOlywoBrtRqMG9cVYWG38fbb76FBg5b49NO22LFjOdasCcKiRb8jKGgYmjXrzDQGo0d3xrp1Z7Fz50+wtbVHzQ8+gadXaxw5EonHj+9hgs83GDokAGPGdMbUqatx5Mgv+PTTr/Duu/XMnmQcEMwWWc42yA5AiIuLwdIlvvjww0ao+3GL1x54966V8ChZHu+/3zDhdzzM0Yx5wXwLRCQAQt9e5JnALpB38h1wQDBjxHPxqZkHhJkzh6JGjTqwt3dE3TrN0OKzr7Fl80L8d/MShg+fBS+vNmj1ZU80adoBJ0/uhb//d/DyCsH69bMwatQ8Zh5YtuwE2+GSqr1nz1FsQXz6NAzffjuW/T001BuxsTEYM2YBU7136lwDE32WYs3akNcAYcCAyRgzpitqfthAWcivnsWaNWfQq1ddLFly1HCfJgwQBEFEixZuDBDGje+GWaG7mKagadMS8PVdjdDQEVi+/ARsbOzQuHFRLF16PAkg9Ov3KY4cUQBh/ISvMXbMInzzTS38/nsEYmJewdOzDYYMmY5588bgxx8Pg0wMnp5fYt68AwlzIioqArY2doiOeYV9+9ZjzZpgJjfyR1i8eAp++ukP3PjvIg4e2IQb/11gmpc1q//BmbPH4OhYAOXLV2WgkgAIE7rD13cNAx5bOzt81rwrvmrbD4ULFzd7HnJAMFtkOdsgOwDhv/8uwc+vP3tRQkN3MTWc6THVtw/ee7ceWrfuwwHBkunAAQFa7SsEhY7FwkV+KFq0MEsUZa2DmxjSkmzmAcHUxGC8EwHCvfs3MXRoAMaO7YJ3a9RF126eTH2+ddsS5qewbt0s+PuvR9++DbF69T8MMNq1fxuTJq7A7NkjMXToDAQGDsWcOfuwefNCXL7yN4ICt+Pypb/Qp29DBARswo8/TnoNEDw9gzF5cm+2SNJx+Pet6NrNC3361MdPP/3J/o1MGOT/EBkZjk6d3mGA4DOxB0KCf4GjYyE0b+6CGTM2w8enB/udVqtF69blmD+AUYNw/fpZ9OhRGydPxuPhwzvsOSdPXoGePT9iWoXIyJdMO+LlFYqx4zpj88/XmRmlX/9PsHrV6YRBWfGTP+wdCqKzwW+DNAPXrp5hm7Mff5yM2bN3o1+/T+DtHco0L717f4zVq0/j3LnjzImzQoXqrB9//KHBgwe3MG5cN8wI2IQLF/9A6dJvY8cvy1CwUFEMHDjV7FeMA4LZIsvZBtkBCHPnjmGeyJs3L4Cf33oUL+7CVGNz545CdHQUnoc/Qof2A1G9eh0sX+6HZ8/CMHb0Amzbvhj/3riM4sVc0L/faMxbGIDYmKfMrl6x4jtsgv788wIcP76bCbFDh+9Qr94X2LJlIVODUbKgXj1Ho/ZHn7CiRtCKmDXHE/5+3VHKzVXJB5AfDg4IHBByzTzOCkDYifHjFyd5oq1bjIAwAwQQ8+ePwyeftMGZfw6j/4BJbBc/YkQ7TPffiJ27VyA68hVbxO7cvoYZMzdj5KgO8Pdbj8OHt2Hb9mUYN3Yhpk7pizp1m+Pff8/ivfcboHq12q/5INCCPGPGFnh5t0bpUhWZv4+dvSM8PYPQt08DLP/pD9ZPUr+7OHvgVeQLnDr1O9MsTJzYA8EJgOCKxYuPYPv2Jbh58wpsbe2YAyaZGCpVep9dIzz8CXr1qoNPPmnNvo+PHt3BNN+16NGzDg4fjjAAQmuEhOzAqFEd4O5eFs+fP2amhPXrLyTIi7QP3t5foWKFd9im7OKlvzBhwmLEx8dh6NAvMGXKSixZMhWNG7djfg8HDmxEaOhOvHjxFOvXzUKPniPg69uf+UxQHx49uofp0zdgmOeX+LzF17h0+S/myNiiRTezZx0HBLNFlrMNrA0IsbFR6Ny5BlOH/fbbFty/fwMjRszF+PFdmV2sTp3m6NmzNnr1Go233qrOSD8keCfWrQ/Fg/s3MHb0Qvy8ZRGOHNkGnR6oUuUDDBrkx2yP/2vaAd8PagY/v3UoUqQEjh3byUJ6Bg36H1Pd0b1JHblixXEOCDk7zTJxd+6DkAnh5UDTzAEC2c/J897BIWk4Ijn7EfCTVkCWZURFvWQbCReXUmwRpN9RmKOjY0FmRw8PfwS9XmJRC7QYR0e/Yr+j80gFT/Z82n3TQkyhkaQu1+t1IHMo7fhjYiJRsGAR1o6uT+fSYkz9KlSoCNRqW3YdOocO6t/du/+iRAl3psqna9D3h/5PZj6KLChYsDB27VyB+g2+ZM/Yps1b2LDhAnM0NB4xMVF4/jwMxYq5sHZ0P7oP9Y+em/pF/SHTwrNnD9n9ye/B2A/jdeg5Xr58Bq02Hk5O7gnPTjKia1IbAosSJTyYRpfkSvcjIHBy8gCFT5r2g/w5qG8kL5IpyY+uYe7BAcFcieXw+dYGBFrI584djdq1miLi1XOcOXMUv2y/icFDP8OUySuZem2aX3/UeKcOA4RfD2zCMM8geA5rhRcRT1CxwrtsYsqyBpJkB70uEk+ePkK1arWZLe7ArxuZlzMVbGjdqhfKlK2MSZN6oVatT5lknz17hJCQLRwQcnieWX57DgiWyy6bW7J0G6aAEAhHB1eDNwwv1kSjMWPmUES8fIbY2GiULVuJbXZSrsaa0bFTQp3zwkFmP5FVczSkWmYRWVSsKRa/7FjAazHkxkG0JiBQnu1hw1qhbdu+TFtABNyxYzV8881wFi7zZcueTIPQrdt76NVrFAME8jKml2Zm4FDodVp4e83C5Ut/4+Kl4/jzr8Po2Kk3Pq7bEj8Ma4Mvv+yNO3ev4ZtvvPHyxVOMHNEegYFbMXpMJyxa+Dvo/j9vmo9venhyQMiNky9DfeKAkCEx5fRJJvXYWLGmrn0xasRMONpTUh5jYi/qpCFpF+uvaRG31H5OqY1poTj6fWqF4zJznjkF5lK6T+rt6TvIep2QoyS5TNIrhKfIhFKgSYJekaL1XG6ybmaxBK5KRUdBFpX8LUKcUu75lyW83HPWSTrrrmRNQCC13Ld96mHFT38lUPLffx/EihUBIMcfP78BrFJjZOQLBg3kHPP779sZILwIfwqfid0RFxfLHvb7gT7Y9PNy3H9wlcUdq1W28J22DmvWBrP4ZZp4dT9ujm97j0Ng0FBcvPAnHB0KolmzLujUuT8HhKybMtl8JQ4I2Sxwy26XsB5SNcc4pZrjSAIE92TXsxYgpLegpwUSxt9ZCinmAULqYJRRgEo8T0/11ywbsRxoJYNytzEySBA1lQLXYOeuBfDx8eLVHHNgVNK8pTUBIb1nJZKOjiY7XtHXTpWpCqgg40W4Yo/T62PgN30cPIeNR3ycFk4lPFhRY8oUGBsXA1EQYW9nn3AdUuGRLVKlUuqPcyfF9EYjt/6eA0JuHZkk/Ur44EuIiY1H1y59TQAh7yxheULWJp1UCmwbD1P4yp1PYoxfkyX6dpMGQQ8BWvzCASF3DlhOAkJaEhGZGi4OgqhDVFQ0Ll08g6XLZ6Nd2+6oU6chihUrDhk20OjAnGVEyhiYqp6NA0LunH0Z6RUHhIxIKXecQ++shKjoGHRo3wvfdPeGvW0JyIhXAJ0fWSYB2lyRhUIl6qDXx0OtUkMv6V8LIc+yG2blhQyJ3ZjehbK7ChLOnvsdkyaNZk6kZHpJHgqf1u0F2Wi0yWAnFeHJePr0OXr0GIZp05ZCku0BQYZAqWkhkvUGYQ/O496dw/huQGuD40ReMORkUAgZPC33AoIGT5/fxI6da1CkcBFUrFAerm5FEBUdj2vX/8XTJ69Qu/YnzFlRr7eBINCf1MaPA0IGp0MuPI0DQi4clFS6RBCgR1R0LNq1/QYf1mwOtZqS6WgMVUPyzpPk5p7S2iZLMltMf/31Z3Tq3BKFChVg5lrjJok+hQZXh4RyLPR34ycytZ/pChk9LzUZpdee9Yv1T4ZKFNl3u0aNKqhVqyYDA/q7OQneOCBYcbZKsi0EVRwESYIs2QNqLVau2gdnpyZw9aicM94vsoRXEY+xZOk0zJozBUWLUHUxWvy1kGQtJInCnLQYM9Yf9et+ifffrQdJVkMWkiZgShTbmwMIu3ftQm+eSZEnSrLiNyP1Syve6bFxGnzdTfFBsFE5QaUib3V+ZJUEJFmCKAiIj4/HpCnfY+myALg4O7NPJC24ufVI5BdFm0SgQKGorF5MQtVZ0ggrkJDRI4sBQekKaRISNAgDWxk8bTPeqYx2PrefJ4GK+UgQjc4uoqgAgnMduLrXYCl8rXVQOmClFLE60blZ1iMmNgLz5k/BmDGDUK1aBYiiwKoTCqyTit8B6YHCX0RjwvhAtGjWEaXKVINA10nxsDIg5Lj2VKVUcwx7jN27dqN3v14QyImDvDRyakoLOsNIMEOjMo9YQifaxpgjMK5BsNb7l/XXVSziMbFx+LrbAIwcPhMO9lR+2TgJjcXCjLZy49zI+p7k7Sum/9KSFiE+XoOJk/tjxcqZcHJyYn5YAvMCzO1HIiAoM0GpTGs8zIEDamNFQLigmBgYINDkzQvCzdrBl9jHWolPlUEGfVusXLUXzq614epKGb6sDAhM7aWkz1BUYjqcOn0ITs5RaNPmS/Y7mvgJBwMEPWSBEqpIuHj5Ln78cR2+7TUaouD4hgKCEjoUFvYUu3fvVDQIso5NZ2umHE59JtKgKvdXoID+KH1kIW8cELL2Jc5VV3s9UZLSPcU/wfSQ2Nx48765aQ2X0VdDYHZ6o9yUkMikkpJBSaUmTh6QAAjmquZz1bTJRGeyBxCSlMLNRG/zWFMFEABREiAzhxE1Vq7eB2eXOtYHBJkiFUwFRr4jWqzb8COG/PAl3Nwom5hacUBki4vhhRHIpqmDntnh7OAzMRCtWvaHvZ1TzgBCbgg0YoDwBIqJoTfzDGZ4kGMqBFoMTHeIHBDy2KfBwu6mBAjJ54JyaR2DxXyS7txCaSVpxjZpKoPWz7ijpo2ryDZw5DmXeHBAMMrCOoAgyXj08ALu3T2C/v2/UNTXbyDNyqLE1PYKIOggEyCs2gsXAgQ3KkNqRQ1CMkCg9J6CqMGxYwfQrUsz2DvYQmVDEKBBvCaehSza2tjDxkZJskEaB1lWYd26vShT5kMULuSSbYAgyRTTqxhIjB7FWfGNsPgaDBAeY/fu3azcM2SdAgfWBIQ0LAXkCEwDJFA6VjIPGeOfzdIekDS4icHiOZEjDVMCBDI3GTVJYM51DPVFWdmUJFExm6qbU0sYlJm8A8ZdeXrXMM2JkFKb1PpmmLNJkkClc0/Fnd+QH8BgJmWvrqx84ySBDMGvbaa4BkGZ4FYDhAf3zzFA+H7QV4BkBARzJkZKkyGl9pk5L73JmdFrpzyhZUbwRKhk1SfVvQ0DBFf32nBxeS/bAIFeBEkitbQGNhSyEy9DL7/CoiUzcOf+ZTRuXA/lypXF1au3cGD/IbT8sg1at+4ESAWh1VDPC6aRGzzrfRCYv7ZOB1FtA/reKWGWxrHK6Jik9THJ6DUMH1RZRHR0HG7+dwPVqleBoFK0B4l7juQf3vTmubl9SzpPdTo91DY29HWDYPQfsWjB4oBgkdhyrFFqgEDzTwW9XobahjoXC63WBgLYX97oIwnDU6SdoIFEmzXaQMk2kCUb5oeVlPW5BsE4aawDCMxJ8QIuXtiBbl0bQRZsyRKfEI5j/LQqCS2Vz2zyn5VPqPLhTXS2eP281OzAaV1buWPK9zXtj7EPxozc9DvTn1Pqd5LnIUCg3bDBB0GCGhs3HUb16s3h6vGudQEBeiZxclKkyATKaUSldAVBj/t3ruLXQzvQrkMT1KxVAw4O9oykyf8gKioGhw//iT27j6Fj+z4oXtyDjV/qu+WsBwTSINDMeHD/Hlb8tBEiS8iUVPZJx8E4R5QRU1onLsKmzjqJuqy0rmecZ0roLttjyCqmzRBVEvQymYsU6aY0R1Kes4l9S3tuv35e8vknSDKqVquGr9p9CYFphkzT7Zpjd+aAkLdWz9QAwZinREJM3HNs2rISmthIpoXLCLqmh8upKbPSurZpm4ycZ47OIMP9SXKiIQ5R0DLTiyypoBYLoUvnb2FnV0zRxiUcHBCyHhAMiz37AMuUpe8+VqwKhayLUrLy5aiJQcdyM9BiydSzr6morPWZUGaoogIG1GoV9LIDevUYimJOpa0qE7azpDEhVX2Cw5KMyKjHmDV7FAICJqH8W2VAkTtygtMO2dbJGqfGxYv/YsniLejW9TuobQon18GZCCyrAIFgyuhYJUEWBZz5+wK2btsBT69h1hqgNK+rfLQULRABAVNnQIbEdu1ZFV6m7P4Sc+obIxFYcnU2bwhR2I7H4FTyMjwSPy1fiomTx7OMmEISWzMHhByZLNly09cBgaCVaSoNKXYjox5g0+Y5mDSxP0RRky29yn03UfwymOZUsZUCzNfKFsxBkUxxgoj1G/ahYrmGcHOvangHjU/CAcFqgMB21TRpmdu8lJC9KacmEX16w188xLPnj1CxYnWIoJTBMiRS+bMPc/YcLHGFSoBer3zoxSxbYFLuPy0Tyh6XbJS0+6XFV8L+XzegfoOyqFv3IxYTqyw6RsbXGxwWBRbFsPDHVdDGFMWnTVpBStVfIqsAge5Ni66SvlmChLOnrmPvvn0YO94zSahO9oxYNt2FjYsSq6xEIdDHTc/eG1LqkHmFVMeU0ZIKZFEs9svncQgOCcKkyRMgigYfBIsAnGsQsmmUs+g2KQECIIlaRWemVyM26gF+2RGEgOk/QHwjncMT1Qa0BOnogwsVVCoRoHdFT99/CXpRgzXrDqKUezMUL1YOQpI8LxwQrA4Ipm9Eznl7k51JwuUr/+DSlfPo2L4bINspZgtyUslGQEhMRqDEzysLtvUOBRDo0LJ7KW4gsVi8NADTfL1QtCglSDJNnME8dhLC5iRZh4cPn8F36iL06zMKUCXWYkja6+wAhJzRIFhvdEyuzL5nBEZGQFD+T1odrU7xdSATi6TXsrBU+uhFRcQiOCSQA0K2DFBuuklGAOEhduwIxPTpQyG+kVEMiYAg6QXoyUmcmQ8U+BYkO+a3o1fpGSC4OX8KF5cKySKSOCBkKyDk5CtGSW2uXzuLi5fPokP7rwFKC832p1K2AoIxozXt2ml3aE4+bEvklxwQ9HotNPJzrF4VitAQP0bUWq0W9vbGhd8ICJTcSYZOH8+0CWPGBKBt2yGwsyuSSjc4IFgyPglt2PdMMXuRXkuhRwEx0fHo3+cHPHryDCo1mTjIh0QHG5UtVqxYgrnzQjkgZErwebExB4T0R83gsUPZX2UBR4/+gYk+/gwSBDUBghoqAfAa9T3Cnujh7tIErq7lk12WA4JVASH9Qcy+MyiC4Oq1M7h0+Szat+sGAfZMVZv9GoTse2a6E5nZyD6tqKtVEEUJzyNu4ZdfliBwpm+CPTtJ6k2jBkGQWZES0rD4+ITiyy/6wc7+9aqQyhNxQMjcyCZViZLM6cNGgDBupC+Gj/GEvYMIlSgjOioWE338MN3fD3Pnc0DInNzzYmsOCOmNWmJpIRvoJQF/nPgb0VFxqFnrA4g2lPbeHtevX8WrqHA8fCzDw7UJXFze4oCQimCzLorBJCIhvUHMzt+/yYDA0i0zc4Zi45aEl5g1ZzwWzJvBNAdJK3sZnHmYQx7lR9AjXiPB23MqevUcDZVNAa5BsMrENZgWmEupyMZKq9HBe9gonD/3H6pUfwvzFwVDkDWIjtHAc+h4TPOdhHkLZnMNglXGIzdflANCeqNDgKCERqtx8NfDmDljNjQaCePGj0bjzz4EdLa4cukiwp7ew4NHEtxdmsLVpWIyh3GuQXjDNAj/GDQIXzMNAi2Weuadnn1OiulN7Kz/PVtuFG9eSgaioifWYNWa2fD2+gaubi4MAmxtbBQnX1kAFSoxJgAiRd2J4/9g29Zj6Nb1eyXUMcWDaxAyN3YmgCDTiKmg0eox0ns8rl65hfIVPDB3XgBkaBEXp4fXDxMxbepEzJ0/iwNC5gSfB1tzQEhv0Cikm2VMBHDo4DEEBy2EjdoGg4YMQNPPagF6O1y5fBFhTwyA4NoUrs4cEFKTa/7XIEDClWtncPkSmRiMgECK98SI+PQmXV7/vZKNUM9U11evncbd+ycxZEh/2KplqMm+TS+ULLI8CWQHV6lViI3RYsRwf3z+WWeUKl01DX8NDgiZmx8mTlWU3lpWsdCsY0f/xOxZyzB0WF80bFQLajUQ+UoDzx98MG2KD+ZxE0PmxJ4nW3NASG/YSANHTtky4hH28Bk2bNjFNkCdOrdGyTLFIegdcfXSBTxggMBNDOnJ880BBPJBaNsdAiiK4c0CBHKKpAWGwuVkWYst2xajhLMjhgzqyVKOUvglnUOaBgr3iYuLx8yZ81GqZA18+MEngGAPOdW0whwQ0nvJ0v69qQ+CCL0EaDVaDB7iiXJlq+PylTNYtXYpc6yKjIyF57AJmDZlAgeEzAk9j7bmgJDuwElkphOgQzy2b92L/fuOQVTb4tN/cklmAAAgAElEQVQmddGx0xcQ9A64eumiARAk7oOQjkA5IKQ74/L+CbS2k3ZAKe1MvgbR2Ld/B2JinuDjeu+hevUKKFyoAF6ER+H8hSv46+9zcHMtj/oft4BaVVhJdMUBwUoTIamToiSRJkfC7t37sWzZJnzToxPatG0JtVpAFAOEcRwQrDQSuf+yHBDSGyNZL7J8azLicPvmQ/z0088sS+I3PTqifIVSLA/C1cuX8ODxXeak6O7SGK6uFZJdlvsgGAXCASG9GZcPf0/Fs2RJi8iIJzh0eBfOnj2KB/fvoEzpKvikURPU+vBjOBYoAbCIDyVjYOp1ibgGIXNTxCQfLMtoqaTNpdoPPwwbj34De8POlop9AbGx8QgJmovZwTMxf8Ec7oOQOcHnwdYcENIdNMmQKVfUQJZtcPToWdy5cwfvvFeR+VypVYVw6/o1OBS1R9gjieVBcHMjHwTTgwMCB4Q3yAch+eSn1KyyRBUTyZFRC50uCn7+kzHc2weODoVZGmEKjZRMsoulnsA37wHCw4ePcfzEaXzZsgmrQ5HZQ6PRsmqYLFub2UfKgKDV6XH0+B+IjY1h6bAFkbJwUsEtoG7N+gidFcwBwWxZ5/UGHBDSHUFjKVoDIDx6HIVTp/6B2lYHnS4eNqrCrH5J1feq4uChC8zEwDUIqUuVaxDSnXH56wSZ6gioKFMfVZmkZxOhiYvEzMBp8PIcB3uHQkr9Bor1MKGC/AQI0/znYf7C1di4bi7q1/sw0wPsOdwXXsP6oHQpdwuulRIgGMptM1WpUnubYlBYZjxZRuQLDYKDeaplC4Sdx5twQEh3ANnrRGFZlEHWBlqdDau7oFJTymUdBMmRZVTUy0qqZQIEZ+fyPJNiKoLlgJDujMt/J7AKhQIVc6LiVYBOG41p00fD23sqHB1TS4iUmhzyngahSbNuGDb0Wxw8dBKzQiawB7t67T+EhCxFxYrlYGtrg969OiAyMhp+/vOh1eswYewQlC7tjkU/rkV8vAanTp1Hz54dUKxYYXTtPgz1P66JubMnw9HRIWsmDLmKGKiMFdOiokxK5SZEhGsQxFMtZ42c89RVcgYQZs1ejjt37qNEieIY0P9rODkl/UZERUUzH6ciRZT07Skdd+48wNlzl9GmdbNskDjb3rAXSCnOR+8PFezTAZIji9SSBT1WriFAaAoX7oOQ6phwQMiG6ZrbbqFkf1CKmNChZYAwCt7DfeHokL8B4fz5q5g0dRaWLQ7Ap0274td9q1C8eFE0/l83dO3cClev3cTmrXvx54mt6NHbG61aNmGRHXPmrcDxw5vwSeMuaPtVc5QtWxLjfYJYey/vaejbpzM6tP+cwYV1D4EVa+KAYF0p586r5wwg9BswBgMHfI2bN+/i5817sPKnIFy79h8ePHyMOh+9jx27DiE6Kgb9+nbBxYvXUKCgI8qXK83OD3v0BKVKuuP585fYsPEXTJ3iDXoH6f3x8HDFtes3ERMTCwd7e1SqVB5nzl5GgQKOKFjQES7OTvj71DmUKVOSaecuXf4Xz56F4+O6NS14zyjvjQIILNW+qMfK1Qfh4dIELtwHgQPC5Tc4zDH56L/JgPB5y96ws7dF40Z1sGjJenTr0god27cEmQl271iG2Ng4VKvRHD9vmI9mX/TAFy0aMfEd/O0Edm5fCi9vX+zasRQFCxaAs3ttnDiyCZOmhGK6/ygLTQzmLkUcEMyVWP45P2cAYZjnFISG+DAxjh4TgG97d8aESUFo1bIprly9gcqV3mLaNnqvHtx/jPMXrmLYD73Qs89IeA75FqPHBWDntqX4ZecBPH7yDDXffwdLlm3AvDlTMGjoRHTu0BJ79x+G7xRvLPtpE4oWKYwSJYqhUMGCKFjIESdPnsbypYFo0KgjevfsgB7ftLPAd4gDgiXvAdcgWCK1PN7mTQWEW7fu4b0PW2J2yEQ4Otrj9p0HWLdhB1avCEb/gWNw/MjPuH8/DA0adcKObUvQ6qu+WLsqlDkIHjhwDH2+7YQevYZj+7YfUbCAI9xKfYSjv23kgGDh+3DgwAHcunULxYsXR9u2bZmjJ6mqhw0bhmnTpqFw4cJ49uwZSpSgiJrE459//kHNmjWT/FtcXByOHj0KJycnVKpUCa9evYKHh4eFPcutzXIeEIaP8MN3A7tj1pzlKF6sKCKjovDll01hb2ePDRt3GLQFL1CqlBsOH/kTG9fPRbV3W2D6tJH4ZccBvIqMxsZ1c7Bw0RocP34K775bFcO9+6FFy154p9rbaNHsEzRsWBshs5bhwK/H0LRxfUS8ioTnD30wd/5P8J820sLB4YBgieA4IFgitTze5k0FhDVrt2HL1n3YvGkBG0HKCfH+hy2xakUwJk4OReFCBfH8+Qucv3iNmRgGDfGBh5sLSpV2x6bNu3Fgz0p07DzYBBDq4OhvGxA6eznzRRg1YiAKFUqtZkVWTZr8o0EYMmQIOnTogHPnzjFIaNSoEVvYZ82ahYEDB6J69eqYMmUKRo4ciZcvX7JkXmXKlGHwQG0JKCIjIxEbGwtHR0f88MMPqFGjBgMMOp/+LTw8nLW5e/cu7OzsWBXV0qVL48mTJyCooIqmtra2cHZ2ZuFwNjY2KFWqFPu33HfkDCD0GzAa/fp2xfXrt7B77+/MFHfu/FVmXti8ZQ+6f/0Vbty4g9i4OLxVvgwuX76OEk7F8dvhk1i2ZAZqfPA5pk0ZjkOHjuNZ+Ev079sVIaFL0KljS6xYtRV9endEyOxl8J3shX37j+LtiuVw70EY7GxsUbv2u/jnzCUM6NeNtZk8ydPCYeGAYIngOCBYIrU83uZNBYR798KY7dLVNXFHSnbSQoUKst3OW2+VYUmKunw9BH8e3wq1WoWLl66D8rtXersc3NyccfXqf8xWSgsNfbiqVa2IFy8jcOXKf6j3cU3Y2yuZOq13CHjxPA7B+cBJsX///ihXrhwuXrwIb29vLF++HG3atMHkyZPZYv/8+XO2aNN5u3btQtGiRfHRRx8hMDCQLfC+vr7s51atWuHGjRs4deoUA4TevXvjv//+w9atW9GlSxdcv34dEydOxPr16xEcHIyNGzfCx8cHly5dQo8ePdjfXVxc0LBhQwYk27ZtY/3KfUfOAALZ/qOiYti781b50sw/4J8zl2Fna4MCBRzg7u6CM2cuMW3AzVv3IEsSqlatiAcPHzFguHDhGtMovIqMYhB+4787TANHvgr79x/F++9Xg8+kEEyd5Im79x7CxaUE82Xo1rUNM2EUKVKImTHuP3iEUiXdLByWlADhV3i4NOU+CGlIlAOChdMtLzfLc4AwbhhzRLbm0b7T9yhbpiRu376PypXfwtTJXgwQct0hCwh/EYfg4EBMmjIBKopGIdkYQx7MkhOFUErQi0DgjDWoVr093EtWh6zWQ9DLEGU1i5zQal8hKHQsFi7yQ9GihSFk0WAMHjyYLe5kEqAFeebMmWxx/+KLL7B27VqMHz8ederUQdOmTfHgwQO4urqy/69cuZJpGry8vPDXX38xjUHfvn2ZRogAoVevXvj777/h7++Pr776CoUKFcLcuXPx77//onXr1gwIJkyYgGvXrmHx4sVMI3HlyhUGEAQMdG758uVz3dCTc11srAZduvbDqOFBcHRwYXUGJFGrhMPq1YiNeogdOwIxffpQJSw2Fx+U0n28TzC0Wh3at22BD96vjinT5iA+Pp6FDZcrVyrLem+MXBAkBwiyBEmlxcrVv8LNpSncXCsluw9PlGQUCAeELJuCeedCeQoQ9u7H2PFeVheuTqdn6mbKAWFnZ5ssLtrqtzfrBuEvohEUHITJeRwQSGswatQotnung7QBQ4cOZYs4+R6EhoZiz549qFixIvbt24ewsDBs2LCBLeqdO3fG3r17GQicPn2atSUNxLvvvouePXsyDcLBgweZXwLdg2Di6tWr6Nq1K4OMBg0aMA3CkiVLmCaiU6dOmDp1Km7fvo39+/czs0TuO8wBhGGGaq657ymS90gpJqeQLUsFzzK3mkW66T4kZRKRRQmC3o5BL0HVyjX7OSCkIzkOCOlOrfx3Qt4DhOH5bxAy8UQKIMzM84CQkgiMTopkZiC/BPI7MC4W9DP5HZgetKDQHzL5pHTodDqoqVKZ4TBeL/kCRLBBvhBkjliwYEE+8EHwyjOAkIlXIcNNFQ2CBEGyh0Bpx1iY4wG4u/JaDGkJkQNChqdY/jkxtwOCDC0k6HHq5GVs2LAZA777Vkl8wg+W9CX8ZRS2bN2E6dOnQJB1rAhXXjQxpAUIxiiG5DBg/LvpTtMUEIzAYNyFZvVONGenYNoaBEGvQnTkA6xdOwlDh3ZjFUD5oUhApv8o2ZhkB0HWAzYytv5yEu9W7wR394rJas1wE4Nx3nBAeAPfoNwOCJKsYTmc/jpxCYt/XI5OXb7igJAwTwVERsXjxMkjmDHDF6Kgh0jq2Dzog2AuINDun33sk6mhCQJMVdSmv3+TAAE6ETFRD7FkyUh07doMxI38SEBKgwaBolMk6AQdjh2/hgb1+qKkB/kgmAqLAwIHhDe2WJMxf2LuzaQoQwNJlvDPqWv49cAhjBr7A//OmUjgeXgMc1KcMmU81CrmnmYZIDCoSOak6GFwUqRiXglOihEICh2X5U6KlgIC+YpQaCOZDhwcHJh5wRQQyKxgNDkkN0nk7YmUjgZBEhEV8RC7dgXD3/8HCALXuiVytV4BBD0VZ5OgQzzWrj8Ed5cmcHV5mwNCKi8G1yDk7S+GRb1PTYMwfPgUFHCgfOpGmqYPTFKyNv2dDBVk6NiLB60Ks2YPg79fD5RycwcEAhAzDlEDyCpAVkMW4llo4dnT/2L//gMYM9bS2Gcz7p/iqVT0JZd9ZGWwKIaQoCBMZE6KaZXizsjzS9ALQODM1SyKwYOiGFRaCJIIQVYZohheICh0DBYu8mehhgLLb2+dI3miJKPJgP5PUEDhjrt378bTp09hb2+PqlWrYsCAASwpEsEAOTIGBQUxQKAQR3JapH+n9nkfFlIDhHhWc0DQqxEdGYadOwPh7z8UKjF3RzFYZwalfFXyQaB6DNA7QjCmWl6rpFp2dq7AizVxQDiL9m27Q4ASp67nGoSktRgCRmGENwFCkQy/t1QRUhIIEGRAJ2DWLAKEXijl5qa8jOb4DYhaBgfsDwECZJw99S/zVB87ztu8a2X4CTJwYi5U0758Ho3gECr3PInZThWHbwIZcxeEZBqEau1RslR1FgImSARrInN00+leIDAkZwCBzAqkEThy5Ah+//13lkGxdu3acHd3Z8Bw+fJl9u+U4IhCJCn7okajYXkRKIKBQKJbt2546623kmgaMjDyufCUtABBxQAhJjIMO3YGYfr0Icz8xA+jBHiiJEvmAtcgWCK1PN4mNQ3CiOG+KGBGsSZlSSLVnd4ACEPg798Tpdxczd95E1BIVOhIBQgaYvxEQBifUxoEGujcRwgvwiNZwh8CBLIzM1WyxZoOg4khYB2qVTNqEGTlcrLANBQaDZkYjHkQCmWrBoEAgaILNm3axJIbEQjQQRBg/Jn+fujQIRbWSLkTSLNAJgfSIhhzHVACpAIFCmR5+Fz2fgrSMjGIgE6F2KhH2LEjGNOnD4YoEqTzQ5EABwRLZgIHBEuklsfbJAcEjTYKfgFjMMJrilnVHMn6LUHL4ovJQWr2rEHw9+8Fd2dniObmGCIzhUQORCIkaNiyfObUNezdvxejx5I9VYAsS4pDXrYeijo9ocy84fY56fwWHh6FkOAgTJw8SfFUZwlxLDCFCIBOp4Vgo0bQjLWoXr0DMzHoWSlwASJpEAQgXhOBkNBxmLdgGooXz7pESSkNo9HEQLkJKMERaQA8PT2Z2YDSIRvNBXSe0feAIIL+UAIkSqfcrl07ZUkwODUeO3aM5TagPAem/grZOo0yfTMaaD1i4zTo1m0ARnjNQAFHN0iUKEmgREmkQRARG/UEO3eSD8L3HBCSyJwDgiVTkAOCJVLL421eB4RITA8YA2/vqeaZGAgQhHjmgyBr1Zg9eyimTu2BMu4egMpMdTcDBNodipBlDQvdO3P6OrM5jxozRPmwi4ne6jkxBLTe0G6drclWSOaSsWcS8PxZJKtXMGHiRJYtT0kBwLb8GbuE4Sx6ElpoZVHAnFkbUKlyG3h4VANstJAl0iLYsILgWm0EAkPGY87cqXAiQBCs54NAizolUJo0aRIDBEqMROYESoNMcJBSvgPyLyAzBDkvzp49GyNGjGDnGQGBtA2ULInSN5ctWzbVnAlmCS9HTpYQExuPb7p/j1HDA6FWF2cykUTFBwE68kF4iJ07Q5iJQSVyE0PiMHFAsGTKckCwRGp5vI0pINDHVS+RBmEchntPhKN9wTTU6qZOixRZTD4IccwHQdbaYc4sT/hN6wt3FxeIonmLFQTyQVBBIL8GUQ9Z0uPUX1eYk+LYCd4U2wbRigtTykNqcGwy/JIcJwlSWNy9SWhdtk4H5qQYj+CgEEyaMgUCDHkQCA7MNTNIpAESoJe1mBW6DpUrt0TpMu9AL8awFMyypIIKIjSaSMyZOxmz5/iiWLFCDOKsddCiPnz4cFaPoeD/l/ulDImkQaAF3/gn+b1pPKgd/X/z5s2sMiSZH4zhjvS7kydPIioqCs2aNUswP1jrGaxz3UQNwtfdBmKE9ww4OriCMgRKYpzBSdEOUa/uY9dOMjEMy/Wplq0jp9SuygHBEnlzQLBEanm8DVu7accui2z3r9HEYPLU0ShXtgLs7Rwy/HRKHvg4tp2WtQXw91+b0KLZ23AqVMSg9s7opWSARTGQkyJBhwYFCtij0tu1sG/vfpQp547YqCgItEhkJyQI5F+hZcAk6WW8U+MdNG7SmD2vOseCzAU8f65BaGAwqlavhhMnTifoAzIq7YTzaB7QDhQSLl76D4WLfABbu+KAGGWIobdl/gaSPgYXLh5Fvfo1WMEea0Yx0KJOKZA///xzFsJINRLmz5+fYBpIKRLBFBDInED1G8gPwfjvZA6iDInkt1GlShX276a5E8yWW440UABBo9Vj44bdqP9xG9jYOIFyhrB3ECLs1cXR9NOaOHhoPvz9hkFlLqTnyHNl1005IFgiaQ4IlkgtH7WRZT37YNJOxEZFsQNmmAZkgak3yY1e0thh/tyRmDq5F0qWLA2Rkh2Zc5CjI4U5QoROigWgYyaG/SwPAkUxgO3aRUOSHHMund65Eu1A9RIrzkQq98RFiDQIJA8RDx8+wr79+9GjR3cIghJnTypto6OcshhRKB2ptmkByvp88uw5ZAEvInSYGTAT4yaMh6ODHdvtM/OCBRoEAgStLg6hoWtQtWoruJesAtjEKLtvvaJB0GqjMWfeJITOmopiVKxJMNfBJL0RSPp7486f/jUkJIQVY2Ljb9AipHQ1o5nhwIEDrLiTsVyzMbUyQQdBAhVvSp7337ze5cDZTBlHE4p8EOLxbe/BGDqEzIFuShQRwTXzQbBHXPRjbN8eBD+/wciNtcZyQHqGW3JAsET2HBAskVo+akOAQB9MSdKxxVdQ1AuGJzSaCVLKiyBDMuQsUHwQbDB3riemTe2Fkq4uEG3MVUOTiphy5pMPQjxElYx//rqCPXv3YfQ4b+agSIuAjUle/awahjNnL2HWnGVYvCgAa9ZuQ5fOrXH12n+oUvktBgwvX0Ti9p0H2LdnL4b+8B2DqbiYWBw99hc6tP8C9+6HwdHBEbv3HMJnLT7B8ROnWWXIunU/yKouJrlO+PNozJo1B+N8JoD2/8wHISHU0ZxbCqAiVeTpOGf2RlSq1BIeJatBVpE2h3wQ1BRdD43mFYJnTcDsOdb3QWAMZFK8hyortm/fnlVyTM/EQGM1b948DBkyhEEe/d140HXIj4HyIhgdFXPS0dScUUo8V/FB6P71AIwcMQO26hJs3PUE6VBBJdnj1csH2L0rFAEzqJojj2IwlR1tOiA5sogGpRaDkgfBxa1isuHgmRSNAuGAYNmbmo9a6UHfUZWKdufmOQGSBzWp4BkgUBTD7MHwn94L7iVcIViSpEW2UTICilro9VqcP/Mv9u7bizHjKMyRarAZsgZmsfRPnb6AufNW4ovPGyMi4hX0Oj3CHj1FXLwGp05dRN06H6B27fexft3PcC9ZEkULF4SoEnHij3/wTrVKrNZ9zQ/ewaLFa/Hy5StUr1oRdevWRPt2n2VxT5XLhb+IQlBgECZPnggVM3WQpsNMnw+DS6Ne1kFQqRAYsAbVq3WAR6l3WKU7JYpBzUwNipPiOMyd54sSJYpkWbnn1IRDC7vRBHD+/HlWpZEiEMjkYCy8lLwCIDkpUjlnCnf8/vvv2aWNSZbu3buHMWPGYOnSpSzKgbQKRg2DVQbIahdVAKFLlz4YMzIEDvbOoFwkesohAhEqWcTL8EfYt3cW/CiKgQOCyUhwDYIl05IDgiVSy6dtSHlgThShAggmeRBmD4G/nzEPghmmCuVzDsgU5iiwTIpk6jhLYY6UKMnK5Z4JEG7duo+jx07B3t4WNjZq/K9pfaxbvxOxMXEYO2Yozp+/irt3/0OBgsUQ9ugxevVoh4GDJqB+vZoY/H1PXL5yA7dv38OLFy/x4kUkOnduiapVku9MsmbiJM2DYNT6GGRo9i0oD4KAwNfyIJBjCVMuMA0C5UFYsHAaihWzbphj8u4bIxMqVaqEFi1aJEQgmBZoogWfykMPHjwYM2fORLly5dhljI6L06dPZyWk33vvvQRwyHvaAyVKJTZWgy5d+2HU8GAGCHRQWCpzHNULhjwIlCiJ8iDwKAauQTD7g5CkAQeEzMkvX7VO0FRn8KmUREmkQTDNpEiAYMikaNaulpwmFRODkknRCAj7MHbccIt2yBl8DGY+eBEegapVKmD33t+hVqmY2cDFpQTi4zXMxFCvXm0cO3oENd57HxEREWhQ/0OsW78DNd6pjAuXrqFVy6Z49OgpomNioFKpcffuA/T4RonHz+rjZXgUghISJZHWx0IfBNLWCIZUyzPWmiRK0kOg38kiVIIMjealSapl0iCYaz6yXAK0yMfHxzNfBDIztGrVCkWKFEkABfrd2bNnWTgsZUwkJ0QyIRizKa5fvx61atXCF198wbQGeQ8MjLIzBYSBGOUdBAd7J2ZikBikk4uCCjGRD7Fj50xMn/4Dj2JIMu24BsGSt5ADgiVSy6dtLAcE01oMxlTLZu5eDGGOSQDh9FXs3XMAY8eNzAGJK/1n8eWyiLCwJ9i9exe+7dObLaosQDCJ3T/7Eji9fE7FmijMcaKSlyFTt5ahF2QEzlyVrBaDEnJKhh2dLtwk1XKxbAcEWtTJ7EChilQGulSpUqwGA4HaH3/8wXwLBg0axPImPH/+HCtXrmRplsuUKYOJEyfCycmJjWXersVgCgjfGQChuAEQCNKJFNSIjXyAHTtmYPp0Tw4IHBAy/d3kgJBpEb7BF2D+jAYNglZUijX5f2NItWyuiYGiGEiDQB7ylGqZajFcZz4IY8kHIVOLYHpjlOiMKUn0oZWYVoSiEXSSGtu378M/py8g8lU03N3JvwJo1KgW6jWozfpKu2xy6FPyA5CdJr37Zeb3Al4+j0VQSBAmTZ4AUSRQSV5UK4PXz4XVHNPquVGb8PjxY1aUiVInUxIlKiBljCYhXwTyOXB0dGR1GYxplzMokVx+WtJUyw72Lqy/5DPCvHP0asRGPcSOHVyD8PpAcg2CJZObA4IlUuNtTCRgAghzPOHv1z0LAEFrMDEQIOzD2PFKmJv1jkRA0OtkyKIIWS/h0pV/4esbiK5de+KrNh0hqNQMHmLjohEaMgPx8VEYNKg3XJypwiFdI7sAIQ5BIYEGQCCHPpKMJVRCZoRk5Z6pmqNaD0FvWu5Z8UFYuMgPRSnM0aJ7Zc3oGXMbECyQw6LREdGoHWCJv0ycHFPKvJg1PcmJq6Rd7jkREAIxfTpFMZgL6TnxTNl1Tw4IlkiaA4IlUuNt8hcgJBRaoPWfjAcqXL3yH9at24Yhw0agRAkXFl1BHuOU54AOvVaDixf+wfoNKzBl8hjYkX8l9IZ12pLFOqOTijQIbyYgmOZHMP2ZJGcKAqYlovO2WSH5nOCAkNG3hGsQLJeUaUsOCFkjxzf4KvlAg2AKCLKIiFfxGDt2GsZPmIqSpcpSSoDEg2nzBaZhIFPDzl+24Pbty+g/4Buo1ZJSPMmqO+w3FxBMXzJjmKMRFJI7H5qGQeafl5MDguVjyTUIlsiOA4IlUuNt8pcGgfwOKJeASHUpRJw6cx137oYzswKlFjbUPk5c+GVympNAygSdToNJPqMwfNRgFC6ohiCTTwDXIPBXxBoS4IBguVQ5IFgiOw4IlkiNt8lngEBmA70CCLIai5dtQuPGrVChQmWoSSXAnACNURkqZm6QZJ2haBOwfu0K1G/wATw8ikNtVminJROJaxAskVr+aMMBwfJx5IBgiew4IFgiNd4mXwGCnhWtovgJqkuhRsDMBejRawjc3UsqRYvYop/oyEge45T6mUwJhBZ79+xByZKOqFK5NNSUxoFrEPgbYhUJcECwXKwcECyRHQcES6TG2+QrQCCnRJbhWVZCLefMW452HXvB3aOMIZVx0gFXcIFyIYiMHbZu3oAa75RBufKuSsgjBwT+hlhFAhwQLBcrBwRLZMcBwRKp8Tb5DBCUyASBNAiSgP0HTqJQ0VL4uP4nrIJk8kPRJSghZIIsIyTQD927t0Wx4g7MSZEDAn9BrCMBDgiWy5UDgiWy44BgidR4m3wICJQzkfwKRNy68wTzF6zEtOkhEA2ljWnRN4bSKZ7zEou3f/TwLmYGTEVAgA/sbQ3hdlyDwN8Qq0iAA4LlYuWAYInsOCBYIjXeJl8BAkunTCYDWclIp9WpWZ0FveyAXr37JpQNNpYJZvoDSYdXEeEI8J+CHj074+0KpaGiMEcKceSAwN8Qq0iAA4LlYuWAYInsOCBYIjXeJn8BgkyehVSgSMd8EQgQJLxrQVAAACAASURBVNkOPy5ei8goLb777juW558y95HWgDQI9+/fgc+EsRj8XW98ULM6VKzkrgRRELmJgb8fVpIABwTLBcsBwRLZcUCwRGq8Tb4CBGOEgkyuhxJw884jlCxZAXq9Df76+xzOnDnDAMHZ2RlRUVG4e/cOiha2R4vmzVGudCkIcjxENQGCFoJI1RV5HgT+ilhDAhwQLJcqBwRLZMcBwRKp8Tb5FBAAjRaYOXMRhnmOgINjYQiiDSjvv1arZSWE6WcbGzUc7G0UbYGsx8Ff9+Kjj6qjoKNKKUbJAYG/IVaRAAcEy8XKAcES2XFAsERqvE0+AwQlIoF8EUhrEBSyEF9/3R/ubiWp0jM7aNE3/qGKgRDI20CGStRj4oQR8PTsjyKF7VmSZQ4I/AWxjgQ4IFguVw4IlsiOA4IlUuNt8hkgKJkNCBAkyRYnTpzFw4cv0bFzN1b22XjQws9y/It0HlVC1OPChVPYvnU9Ro8eDBu1Us+RAwJ/QawjAQ4IlsuVA4IlsuOAYInUeJt8CAiKJ4JeUiFOI6Bv78EImBGC0uXeYlBAB0UxKE6KYLUY4uIi4TVsIPymjUeJEoUgigogWPfgqZatK9/cfHUOCJaPDgcES2THAcESqfE2+QsQKHSBNAgqGZRBWSeLePgwHIsWrsT/mrVG/fr1QWWD6Q/5INDx7/UrWLp4Hr5q0wJ1674PkQIkWQSDZN1ijuCA8Oa+fhwQLB97DgiWyI4DgiVS423yGSAohRrJyEAqAJ1WD0kS8fJFLIJDF8PWxg4NGzZEwYKFEB0TjSuXL+HGjYvw9hqKkqWcoRIo7bIAvQSoRJkDAn8/rCQBDgiWC5YDgiWy44BgidR4m/wFCKmMp0xlnWU1njx8hqtXruPE8RNo0bIFihYpBLeSxeHo6MAcFa3vmGjaQa5BeHNfPw4Ilo89BwRLZMcBwRKp8TZvBCBIsgyCBMgqPHr4BLv37kPv3j0gijJkMiWwgk1IsV6D9aYIBwTryTa3X5kDguUjxAHBEtlxQLBEarzNGwEIskwOiRIEwRZhYU+xe/ce9P62p+HfZIiiIarB6pELXIPAXzmSAAcEy+cBBwRLZMcBwRKp8TZvBCAoFRslQLZBWNgT7Nq1B9/27Q2BPBlZWeecmAhcg5ATUs8d9+SAYPk4cECwRHYcECyRGm/zhgCCkh8BklrRIBgAgUEDOSaa5EjIvinBASH7ZJ3b7sQBwfIR4YBgiew4IFgiNd7GSoCgAqCCDKqqCJw9fRl79+7HmLEjrBwZkNqAyowPBFmNp89e4NjRY2jTtrUSysggIQcmggy8DI9GSGgQfCaOg0pNiZkSkzmZ1ynyr5CgF4HAGWtQrXp7uJesDlmth6CXIcpq5oSp1b5CUOhYLFzkh6JFC7OIDX7khARSAgQZkqBnrrKCpEJU5H1s3zELMwI8oRJ0OdFJ5d1gf1jaMCWEmJnqqDv0jmf//GERSoz3bVnfyLVo5er9KOnaAC5uFZP1iea8BhMnD8CKlTPh5OSUkEU1hwSaY7flgJBjos8vN9Yq2Qa1ImbN8YS/X3eUcnNlO2zzDsMiJ9OSJEOSgcuXLiMkaCGqVqlquJRxITR+YOjv6f1MTdM6j36vfMSUw/R6RAdkYlBBllWgFMuiSB8XCWrRxuTxUmufVX1L+gxxmljY2Npi+IhhUJGpQyRZJ+9/RqTPASEjUso957wOCABBAM1Pmmt6REY9wux5fqhUyRkiqzCa/QeL7GHTUQTlKpehh6iid5pARp39HWJ3pL4QHOghQIIkqfDg/kv0/HowijqVhSCY9osDgnGQOCDk0HTNP7fNKkBIlIiy1AmIjY2FXkd/o12HcZFMvohn1SKcEiAY7ilTBkUBMbGxKFTIge266XucuA/KXkDQ6vVwdHCAjY0KIvOF4ICQf96ntJ4kNUCgnbrIMn5Kcjzi4l+ybJ8qwfjeZLN0ZBUE2UbZsBuSkMXERKBgIQdC/2zuTLLbCfS90ivQr1ejgGMxBi1J06NzQOCAkGRXmbNzNm/fPesBgbQHkkS7DlXixvi1Xb6pWt1UgskXa9OF39w2Ri5R4cnjZzjw6wF83b0rZFmX7IOS2j2NMJNSH0zbpDUDXocP8pFkV6bS0iyDo0F9arbmlmsQ8ta7lxog0MCTFoGehlT5EvRs5279xN8pyY926IoG0Th39Vixchl69eoFSW+fIyYGZX9BidBISJLB5EE1VVSwYe+R6cEBIU8AAi0SlPvexoZUQ5YdIiRcuXYGly+fRfu23SHAjl2IlF05YQuz7Clyc6usB4SkT5vaop4dMjHMEVmFsLDH2LVrN77tR1EMpLpVqjvmjkPJ1aD4RZgjLw4IuWP8MtqLlABBb2LrT7yOLmGRzui1s+48Miko0Ervh8RMDD8umY0BAwYC+oKG/mbd/TJ2JQpJVhn8IIwAQ9CgYswgJkEEDgh5AhAuXPgDx4/vxsCBUzI2B1I4iwOCxaLLYMP8DAj0AVF2Z2EPKQ/CTvTu24uSKjObf84BAt2fDqMTGAeEDE7WPH5ayk6KiZyqwCGp9SVBZ0jmlf2PTE69IgNWg1+gTIAwB/0H9MtBHwSW0syYUz0RpBkcKP8lHhwQ8gQg/P33QRzYvxFjxy1KGDvyhn306C5evnwGG1s7lCtbGSqVDZ49C8Pz54/g7OzB1NPOziURHf0KDx/8hzt3ryMi4hU6tu+Bx48eIzLyJQoXdYJGq4GHRznEx8fj0aM7KFmyPMLC7kKv1yE+PhZly1aBvb0DtNp43L37L1SiCiq1Gi4upWBn55D9b16uuyN9kDSQ6QulFRQnxWk9UMrdKV8oZ9jnlj50TIPwBHt270bvvj0hyLoczIPAak4atLemHz36wJkfWcHs1qKAGTPW4J3q7eDu8Q6gIsdMiUcx5Lr3TUJMbDy6dR2AUd6BsHdwMcnFoUCr0SFXlnPKGTC50KhfOvy4eA769x8IyAVyTnNLvges6ApLjp7Q0eSKQHontP/X3lWAR3G04XfvIgQtFAq0uEtxSilSrKVF2+IOQQIViiTBHYIluPy4pjiU4tQoUMULxSluRYPE73b/55vLhiMkOcldzr75/zThbmZ25p3ZnXc/jY/HmHEBWLFyKnLmzMleDObeCwQeiY/u33+ILl36IyRkKWSF9ErC0cbcbsyqlxxBuHLlLIYNa4d3qtbDLwe2IaDXaFSv/iG+/LIhihcvj7///h116jRHv35hCA5uIRb25s1/Uaniexg2dC5atKqIDBkyonWrABw4uAvTpm0F9TlkSBvMmbMHHTtWRukyVSDr9fDxyYAZM7Zj4YKROHbiV3h7eePcueOYP/8HlCxZyaw5uHMlCTohPgRZJut1mDMzCCETeuCtfLQf1Ldb10WAvDNEpGXZB3duP8SuXTvRs1cnKFI8NPLLQsl0nWXS28wSrUKSgcpaQK94I3RqOMqVbY68b5Ynw3Nh6a1RaI7s5piua5vsxdSDH4iKihMEYWhQGHy9cwDeDjJENBsU8hjQYcHCufjqqy8h60ldbNtzwuyhmFGRzjf6IY+lseP7YMnSELzxxhuiJWVz9bTi1F4MyROEM7h69RyyZs2B7duWIdcb+ZApY2Zk8MuEdu36YdmyCUIK0L37MEEaBgXPwpWr57B+/Rxs3XIa7TtWx5rVR/Hf/RsYO64X5s7diyuX/0H/Ac2xePF+9O3bCKtWHcKtm5cR0LseNmz4Bz161MSKFX8Jw5bGjfNjxYo/ULp0VU/bK6/Mlw4Pg4+zBpDjMGtWMCYRQXiLCIIDjZFstjI6KNp4QO+LO7cfYOeunejRq7OQmkgKJWpy3gedWRCQS6lCSjgNQqetQNm3GyPvW29D0WhEtEgmCGahmE6VDPdaTHQs2rfvid7dg5HRLxf0IgZCGhiiXUavxjqgXCV6yIoO4d+sRseOHaGRDDZgzlqIHFAh27fQaYMRHj4PuXLlEp9pNI4x+nQkVi5HEI4c+RlBQS1QtWo95MiRC1my5EBExD28/35z1KnzKQ4e2IYDB3egSZPOmDixD2q89xEePv4PT59EYNaMTeg/sDXmzNyBW3euYOy4npg793tcuHAcwcEtBUEYOqQtFi3aj//u3USXLu9g3rwfMHp0Fyxf/gf8/DKhTp1soh4TBMN7gGpAr8gxmDE7EJNDeiDfmxkB2R0Igh7QxCWEWjYQhO49OxtUDG5CEEhEQgQhbPpylH67CfLmKw9Zo4VG1rGKwZFPZuNrJzrByIiJiUWfPn1x+dJNaCQ/gGJgWGSYmh6TMrhdClWYOGzjcOPGdeTLlw9aL1+nptUENeVYIQlCbMxT7Ny5BVmzZoW3tzcTBHO2TnqrGNaunYUunYPE0DJmyop9P2+Gj68fGjfujJEjOqJM2WqoVq0BwsOnoWPHgVi8eJxQNfTtOxk9e9bGkMFzcPnKWfz++25MD9soCMKs6dvxLPIJuvlXx7Rp32H79hXYs2dNsgRh69ZL6NevMRo16iRET9OnD8DKlX8xQRCCQjpa9MKzWS9HYuasIQgJ6Y18b2WEVhgpufgbdoKKATIZKf6Hnbt3oUePbtDJ8fDWaN1AgiBWDjK0CAsLR9m3P0XuvKRi0ELIFVjFYM4j0f51XgrRQS565CFA6h/JYIiYqERPGhCMhpaa2y99n7SNcVyR5Nqrbczp2+BaSP+bMGECRo4ckeSZYCqGibXzScO4hcfwC4mMsZTQcUbJ9t9iKV3BqSUIZ84cxqRJXySOvXjxt9G79ziMH98Dz58/RauWfXD5yhl07z4ca9fOwLFjv6JAgaLCaDE4eA527w7HmjUz4O3ti9q1m6KnfxCmzRiCwAHThZvjyhWTsff79ahcqTZu37mGESMWYc6coRg+fCEePbqH0aO7YubMHbh48SRWrpyMrFmzY+fOcISvPoLiJSo4btWc5Mpkg6BBPPSSBnolDrNmjkKTRtWQJ3dm8f6gak5VwZwaIiXBnM4gtksIyqr+Tb/VIK3q36pJkXH7F+ZYBjDUR4nBsSpBupFkDMm1SW4MLzS+pEQx6B0fPXyEw0cOo2HDhlBkGV7aF4+RpHMwvk7S8SQ3tqSPSbWNOjZjHG2LqR6SRo84WcKmTfvQ5OM+eCt/WcPjkVUMTnKXJTcM42BDDg48lCJKL14OaD9NGD8eI0aOcLFXBlUS4sRbwc5Dc2qCkNLcyRZAlmVoKRA9gL/++h67doWjefPumDNnEJo1746WLXqL73SxkTh1+hguXTqDT5q3Q0a/bJBlevBTNDyNiLltKs5CQEAdtG79hfCcmD9/OL777rKwgfD0Qm+Z9IZAb6B6Rcadm//i6ZPbIsSrLBtCEVv7fpLSuwX1aeq9I7V1MWc8xuMWYaQhIyLiEU6ePInatd6Hl5ev2H8J6kqT4zG+ZtKxpTYeY/mLOfWMXzRfeulMcR0kyGQ+IgI/+aJksUrw8TGIrektlXMxOOEdnriwL2is843SeOcaUqJPGB+CESOHOyjBmbUIveztYG0vrtzOJQlCUsDj4mKwc9cqnDl9FKVKVcAnn3ZGRMR/OHz4IB4/vAOdHA1FiUcG38zIkik3KpSrhvz5iwPCYIbeBL0M1uoJoqWkxmfnzx/Hnj3fQJI0aNXqC+EaySXhoFZzoAhJJsVuSwiSImKuu7iKQXjmUInH/QcPsP/AHrRs0Q6K7AtJ4/oWzeKsITUK0WWZDMoMhFvkm6DkOpysyTlv80S2mBr1dJ6hv0wQXP2Z4Dy4psdI3IIgEFB6hZJwUHS7eFw4fxwLloRhxvSxeLt0SaErJ2GDTifj8r83MWZ0GJo0ao9y5auJUJsarTcFKDUkHRLPTN7E6bH5nP0ahqQztKd0giAc+HU7WrboJAww9S8nY3D2qVg4PoPURKLIc+zmaCF2XP0VKRlJECZMwIgRIxwYXIzXxRoE3IYgyKQz1ehw/do5/HXkBwQH9UbWrL6QyF9dosNfJ2IbSJIW0VFxCAmZixLFq6FKlerQy76ApGWCYM0OcuM2TBCYILjx9k63qQkJAhOEdMPblhdKO0GYsBSy8Hm3faAkSyaq6HXQ6Z9j+sxRGDXma5QuWUi8+UkwBOYw5CM3GPQQSXj6NAqBgRMR0GsgtJrXoEikZmAJgiWYu3tdlSBQJLgHpGL4dTtategIRfGD7FEShCeYPnME5i8IQfbsWV3fe8PdN66TzY8JgpMtiAXDSTNBmDBhCWSFwg6TkN5xonkvjR4XL/2Ni5f/xOBBfaClDBzi/8apgl/Ez9fLCsLXfAtfbW4UL1EdCqUnFQTBIFbmwggYCAJJoBJsEA5uR+uWnaHXZUgardXNwDJWMQA6/VNMmzEM8/8Xghw5sjn0PnczoD1iOkwQXHeZLScIsgJJYwi13LlLP0wYvxiyYoiO5ahjVVxXjsexE7+gUpW3UKVKWWiE0RylQFUSBiasEBMHqSAOfx46jt8PXkDdOi2gwC8xuYnTxR1x3f3l0iM3BIIy2CDcu38fB37dgRafdYQGGRNCwLzwl3bpiSY3eEk2qOfIRDP+CWbMGon5CyYiR/ZsrEd2u8W274SYINgXX3v2bhVBIMvne/fuo3GTVihWtBxkkEsbuUU5iiIYXLWioh4id56syJkzGxQ9EQOtIAo5c+UUeRXu3L4DnS5eRMQiv/2IiKe4dvU+cubMD0VmCYI9N5rL9i1UCXpER0fjzn9XUbxYacg6b+Ema2CcbloS0/UCshyDBw9uYOPmcOTI/ppHRpRz01VOl2kxQUgXmO1yEcsJglEyi9u3b4uY1c5QZJlctfRCYnD58mWsW7cOtWrVEoFt8ubNK956Hj16hO+//x4///wzmjdvjrJlSdKggaSht0THkRtnwI/HkDoC9+7dw08//YR27doZYgR4UFx2mi8lqsmfP7/4zfcK3y2WIMAEwRK0nKuuxQSB/KXVYgi77BwHq5pkgx7kkyZNEi41r732mnig0cPcENhGEYTm2bNnGDx4MIYMGYIiRYoY1CNOMg/n2h48GhWBO3fuYOfOnejevXviXvGUPaNmuKP5emJGO74L0oYAE4S04efI1hYTBOOHhTMRBDr4Y2JiMG7cOHz66ad45513xIOcyIH6IFfJDf376tWrWLZsGUaPHi3qeNIboSM3nKteWyUIPXr08EgJgjGJ9hRi5Kp71dnGzQTB2VbE/PFYTBDM7zp9a9Lhf/HiRaxatUqQBFNvOkQoVqxYgTp16ggpAhOE9F0vV7uasQRBPSz5oHS1VeTxOgIBJgiOQN0213QbgkCbkHTEGTJkELYHpgoRit9++w3Xr19H+/btmSCYAszDv2eC4OEbgKdvNQJMEKyGzuEN3YYg0IFPOuLChQujTJkyJg98qn/69GnRZtCgQSbrO3yleAAORYAJgkPh54u7MAJMEFx38dyKIOzZswdvvvkmKlasaHJFiCAcOXJEZOgjwzNWMZiEzKMrMEHw6OX3yMnTwU6G3H369BEvXtYWJgjWIuf4dm5DEMim4O+//xZqg759+5pEljbtt99+K1y3qlSpwgTBJGKeXYEJgmevvyfOnl6iMmbMKFS3NWvWtBoCJghWQ+fwhm5BEFT3xdjYWHz++ecYO3YsChUypGROakimel48ffoUkydPxsiRI+Ht7Q0vL0OqWy6MQHIIMEHgfeFpCKREEH744QcsWLAAd+/eFfFkSEV79OhR4V4eFxeHLFmyYPr06aBnLHmJUT0fHx+QhHfatGm4dOkSzp8/j+rVq4u4IhUqVMDSpUvx7rvv4s8//8Tz589F3Vy5cmHOnDmi7fjx43Hs2DGULl0ab731FoKDgz1tORwyX7cgCIQcSRCIDPzzzz/YtGmT2LS+vr6Jro4quvHx8dDpdJg4caJgxR9++GFirASHrABf1CUQYILgEsvEg7QhAskRBDq8W7VqhVGjRokD/JNPPsGOHTvw8ccfC1JQrFgxNGjQALt27RKq2379+qFu3bpo2rQpli9fjoULF4rEZ0QmZs6cidatW6N+/friRY362L17N65cuSJe3uganTp1AsW2IZf0JUuWYN68eYJwkLcaF/sj4DYEQQ2ERBKCvXv34o8//kDLli2FwSJJB1QpA7HX7777Tmxk2txEKuh7tkGw/2Zz5SswQXDl1eOxW4NAcgSBXsQ2bNggotFGRUWJN/2tW7eKZ+2NGzfEs5QOfErvTN5hRA5IAvDrr78K93NqV7x4cSEB+Oqrr/DZZ58JQjF8+HA0btxYEASyISMSQoSDbB9IclC0aFF069YNJ06cwIwZM7By5UprpsRtLETAbQiCKkGgA5+kBLR5SUpAoi8KmkQblzYa2RwQW82dO3diwBuOEGfhrvHA6kwQPHDRPXzKyREEUg1UrVoVFy5cQObMmYVagA5rkhDs379fHOTlypUTMWaIIKxfv17YePn7+yMoKAhz584V35OdmCpdIJJAkgJSDxNBoD6bNWsmiACpiq9duybsy0gCQT/79u1jCUI67U23IQjJ4UWqhIcPH+LAgQM4e/YsevfujRw5crxkb8DBbtJpp7n4ZZgguPgC8vAtRkAlCJSzJlu2bKI9vcWTvcAbb7whpK5kFE4kgLzBwsPDkSlTpkRjccp7Q6oBkgKQS/lff/2FgQMHCoJA0gOSPBBpIIkBSR9mzZolVBNJCQK94HXp0kVIe+mHXvKIKHCxPwJuTRAIPtrkJEWgn4CAAFYl2H9PueUVmCC45bLypKxEICIiQuS6oUJ2CXS4k5SADL6bNGkiPB/IA4KyoEZGRmL+/PkYOnSo+F496KktvcTRj5+fX4ojOXTokLBDeP/99wWBOHPmjFBXcLE/Ah5BEI4fP55IEOwPKV/BHRFgguCOq8pzsgUCpN4ldcC2bdvEC1nXrl2FgSIlxdu8eTMOHz4s1AQFCxZEiRIlhH0BeSIY58lJbRz//vsvAgMDQdmDKc7N7NmzUaBAAVsMnfswgYBHEYRevXpx1ka+JVJFgN5U6AFEOk8Sl5Jo86OPPhJvMGo2R+rA+C0ouQ4ptTg91FgUyhvOExAgYqAmw6PfZJRI9wuFvSd3RpIQkAvkqVOn8OOPPwp3RTJspND45hIFZ0oO6AlrKp5zipon2U1nTJtVlSAwQXDTRbbhtMiAlQywFi9eLH7XqFFDWE5nz57dIoJAYlPSq6YlAp0Np8VdMQJ2RYCesyRJoMOe3MxJakDxaMiDQc2WS3XIgJzqkffD5cuXBYmmI8hUcj27Dp47TxEBJgi8ORgBIwTooUZGrUQUyPr6999/F1bbdNh36NBBuGjRg450qhs3bsT27dsFeSBxKsXe+OCDD0RwmKxZswpCQRbXZOVNhlxUj1y6yL3266+/Frpb0uWSTzgRES6MgKsioLqR031AwY369+8vpAbq4a8agxM5UAvFQaA4NG+//TYHqnPShWeC4KQLw8NyDAL0ACPLajr86W2HXLHo323bthV6UwreQv8mESlFiqOoccOGDRNuV2SlTbpYSiFO1tukmiADK2pH8TeINJChVr169USQGDK4oqAw9BlFp+PCCLgqAnTfEBkg90ayMyCDQlPCaZIg0P1EAZBSM1J0VUzcYdxMENxhFXkONkGAJANkaEVSAPqbjKPI4IoeYkQCyEWWXLLozZ8egHS4v/feeyLcLOlXKdALvT1ROFmysibdK0kYKleuLL5Xxaj0PQWboc9V0Sw9JLkwAq6KABEE8lggmx1Sz73++usmp0KxakjSQPdKnjx5TNbnCumPABOE9Mecr+ikCNAbDxECspCmmBlkR0B+36QOIIkCSQtIHUDSARKLkiEWhesmty4qFPyFXLDooUfqCSIIFNGTonaS2oLaDxgwAB07dsT//vc/YeF969YtEWCG/MO5MAKuigAR3fv374u9TfEPzIlMS6SCgtmRdI6kDlycDwEmCM63JjwiByJAceLpLYhSgVP0TXrghYSECGkCqQbowUfk4JtvvhFqArIdUAkCGV61aNEC169fFxIDIgjk3kWqBIoSR2LU0NBQEYqWDGYp7CypHxYtWiTsHLgwAq6KABGEJ0+eiMOepHBknEifkdQspWB0RMBJOkdknFwguTgfAkwQnG9NeEROgAAZW1FQF3LDokJxECgpTZs2bYQkwJSbY9IpUKZRakMPTrVQABlypeTCCLg6AiR9owOfJGQkcaOQyyoxSEmaQAa6PXv2FJEZ1UiNro6Du42fCYK7rSjPxy4IcKAku8DKnboJAmoMBFKxUcpmUtVRIQlCSgSBJG5Un1RzRMa5OB8CTBCcb014RE6IQFKCQENU35CSBnBR/238edI6nAPECReZh2Q1ArS/6Yc8f6ZMmSI8eUj9psZAUDtWPRvIXoFUdOTBQyGZSZ3HxfkQYILgfGvCI3JCBJISBHpjokOeHnjqGxL9W32TUqdw8+ZN4fWQK1cuEQdBfWAyQXDCReYhWY0A7Xv18L979y7CwsKEmy8lXiKVHO17qhMTEyOiKZLXDrkQlylTRlyTCYLV0Nu1IRMEu8LLnbsLAslJEOhtiZKAkRcCvRERAaDAL5StztfXVzwwSdxKMRAomielx6WHYs6cOTlynLtsDJ6HQEANlESGipTEiexrKKQyGeJSymYKMEb3EKkUiBRQimdyGybCQHY+rGJwzo3EBME514VH5WQIUKIY8kYgt0cq5L5I7lz58uVDhQoVxEORAidRYCRKMU4iVoqRQG9GJC2gByGRBQqIRDHoK1WqJPoxNw69k8HBw2EEXkKADBTJc2fIkCHCU4dsD0hiQJ/RfUFkmj4jkkw/tO/JzZEikpK9gpoZkmF1LgSYIDjXevBonBQBIgjkxUBZ6ihi4pYtWzBhwgQhKTA2wqKHHr09jR8/Hs2aNRMkgb5X37AeP34sfL/pe3pQUuE49E666DwssxFQA37R/UH7O3fu3IIcp5ZngQIlUfhySmhG0jcuzocAEwTnWxMekRMioBIEirI4depUkYiGRKQkHTD2b+yLzAAAIABJREFU9SZ3RiIEJGqlnAzk9lWkSBHxoKS3LCokSSA9bJ8+fRLbO+GUeUiMgNkI0P4mkkABwUjdRvFA6DNVgpZcR5TnZPfu3SLvibH7r9kX5Yp2R4AJgt0h5gu4AwKkP6WwyfTAoxS2dOirkgFjNYGajEbNInrs2DEEBASIh6VqmEhvTqSqoGiKJFpl/as77BDPnoNqnEuqhDFjxojAYG+++eYrEjLVkJHCMpMELjg4WOQoYSNF59w/TBCcc114VE6GAEkQiCBQlETKy0CuWaY8EYgsbN26VRhkGQdWoofp4MGD0alTJ2HQaE5YWieDg4fDCLyEAO119X44d+6cyElCERLLli2baGejqtkoMyqpITp37ozatWu/QiIYWudBgAmC86wFj8SJEbh375544yGjK8rYSJbXpggCEYFffvkFdevWfYUgkCEXWXTT21bhwoWdeOY8NEbANAKqZEBVNRCRpgyn5LFDYZTJ3obuHXL7pSyOZKhbvnz5xI5ZgmAaY0fUYILgCNT5mi6HAD34SCxKgV3IBkHVmSYlCcYpbokgkAThk08+eckQkepQiNm8efOKByVldeTCCLg6Aio5oHtCTf9MHj3k5kvhlMmAkVwead+rXgxEDOg+YYLgnKvPBME514VH5YQI0IOMpAiUrVH1QKBhGqsIVENEekiSPpYkBUQqqKhkguwZKEmNmvGRfnNhBNwVASIOdN+MGDHCpNTNXTFw1XkxQXDVleNxpzsC9Fa0YcMGEfSF3vpVaYGxkaLq7kVkgAIonT9/XuhiqQ7FQqBCaZ7JyPHChQsiMyRnckz3peQLpiMCTBDSEWwbX4oJgo0B5e7cEwFVfEoiU4qGOHnyZOTPnz8x1LIqHVBDzpKuleqQCxf5hNP3JF0gckD6WXJ/XLt2rSAILEFwzz3DszIgwATBdXcCEwTXXTseeTojQCoDOujJuHDdunXo2LGjMDBUwyqrUgLSudL37du3R6lSpURkRfKCIL9vsmMgFzBK87xy5UrhxcAEIZ0Xki+XrggwQUhXuG16MSYINoWTO3NXBFQXLTX2AR3406dPBwVGaty4sVA7XLt2TRglUm57IgF58uQRqgVSS1A9ip9QoEABYZBFnzNBcNfdwvMyRoAJguvuByYIrrt2PPJ0RkD19VaDwtCDj6QFZ8+eBYVQpoAvpDIoWrToS26NatZH48yPTBDSefH4cg5DgAmCw6BP84WZIKQZQu6AEbAcAXposgTBcty4heshwATB9dZMHTETBNddOx65CyPABMGFF4+HbhECTBAsgsupKjNBcKrl4MF4CgJMEDxlpXmeTBBcdw8wQXDdteORuzACTBBcePF46BYhwATBIricqjITBKdaDh6MpyDABMFTVprnyQTBdfcAEwTXXTseuQsjwATBhRePh24RAkwQLILLqSozQXCq5eDBeAoCTBA8ZaV5nkwQXHcPMEFw3bXjkbswAkwQXHjxeOgWIcAEwSK4nKoyEwSnWg73H4zi1FN8eXSSGKvhv7YuTBBsjSj356wIMEFw1pUxPS4mCKYx4hoWI6AetBLwyp/OTBFobMbjkyBBY/HszWnABMEclLiOOyDABMF1V5EJguuuncuN3JmpgQFMY4Kgyg9YguByG40H7FQIMEFwquWwaDBMECyCiyubhYCR1ACQX23idExBHZAqLVBJgQJITBDMWnOuxAikgAATBNfdGkwQXHftnHfkLxEEPXQ6GZKkFfp8jUb/shTfGWYh6Q3SA8UbiiJBlhVIGkVwA43Gyy4jZBWDXWDlTp0QASYITrgoZg6JCYKZQHE1CxBIJAgy4uN1WLZsFe79FwHABwpikuj5LejXblVVKQcRBMDLS4KsxKBxo4aoUuUdu1yVCYJdYOVOnRABJghOuChmDokJgplAcTVrEJARHR2Dz3sHommjdtBqskKv0UCxj9TemgEmtCEJAiCRBAEKJG0sTp85jDy5M6F3r65p6DflpkwQ7AIrd+qECDBBcMJFMXNITBDMBIqrWYKAAsgSnbiIiolEUGAIenYbDknygU7ysaSj9KtLpIVMDuiKSjz+OXcQsTG30LtXZ7uMgQmCXWDlTp0QASYITrgoZg6JCYKZQHE1CxBQZKhigqjYCAQGhqF7t7HQeNHn3naLLWDBCF+qKjQigs8oMDg2yvjn7AFERV9HQK8u1nabajsmCHaBlTt1QgSYIDjhopg5JCYIZgLF1SxAIBmC4N9tLLTOThAgQ1I0giCcPnsAkUwQLFh0rsoIJI8AEwTX3RlMEFx37Zx35EwQTK4NSxBMQsQV3AQBJgiuu5BMEFx37Zx35EwQTK4NEwSTEHEFN0GACYLrLiQTBNddO+cdORMEk2vDBMEkRFzBTRBgguC6C8kEwXXXznlHzgTB5NowQTAJEVdIFYGEsOBOF5X01UHLCjAxZAKGDR8OjZ0ik9pls7zijk0fOJ2Ptl2mrnbKBMGu8Hpo50wQTC48EwSTEHGFRARUMmCUOEyizygqqfMfWIosY/y4cRg5ejQklyMIL4WFBUARYT2nMEHwnLVOv5kyQTCJNRMEkxBxhdQIgvhOcXp+QJFJKTxpSEgIhg4bBq3WPtlR7bVZXqVfNCHPkSQwQbDXzvLkfm1EECIjn0Kj0cDb2wdeXoYAS9HRkfDzyyT+pu8zZcqKhw/v4vXX81iNeGIcBHZztBpDbmhPBGQQoaRiSD/+4thydgECjZt+Vq8OR8eOHeHl9fL47YlamvtOCJxG40+UfEhqWHbXIjrWYsEEwVrkuF3KCNiIIPz11w+4c/sqMmXKAq2XD06f/guvZXsduXPnFz+XL59GfHw8Hkf8h+rVG+HYsV9QtkxVxMbGICrqOZ48fYTsr+XC44j7aNPmqxTHywSBN7NzI6BAFxeLm7du4vbtWzBkSCWSQBE7DGHCnb3ExcXBx8dJo6im8mRQFC2yZM6OsmXKwttbCzBBcPatZtn4ZFnG8ePHcfToUfTq1cu1dGCWTdV5atuIIPzww3rExETh9u0ryJL5NSiKjHz5i+Hnn7egcqX3cf3GRdSq2QS/7N8qCENMbDRez/4Gbt66jDJlquL0P4dRrty7OHnqD/TtO4UJgvPsEB6JBQiIt3C9DoEDvsbrOTMjT56cBn5AmUcpd0hCX6rwm/5prDlP6W+1niXtU+s7uf4MUo+Ux2NqDMZjM7ev5OqZOzbjenpJj9hYBb//dhyrVnwDX19fJggW7FuXqMoEwQHLZCOCYDxyWkdSN9BvEvfRQ1OjkaDXy0KveWD/dly8+De69xghmhlEggp27VyNx48foGOngUwQHLAV+JJpR0DRK5BlHQYHfw1//3YoXaZwYqcS3WtcbI6AIFVaGU8i4zBwwGjMn7ccfr4ZmSDYHGkHd8gEwQELYAeCYM4sZFkPjeZlK2OdLh5eXpT/IeXCKgZz0OU6jkKAzA8oy+jgoC/g36U1ypQulCAh0IBkCB7meWfzZdDLJIfRgLwttFotFPLLlCRIkheeR+sROHAY5sxdggwZiCAk9Wqw+XCcqkO2QXCq5XCTwTiIIFiLHhMEa5HjdumBgEoQBgV9ge5dW6FMqUIJlzXWiafHSNzwGgqgVyQc2P87nj55Liao1ZJkUkFsnA516jfAiBHjMHfeEvgKCQLVMFbmuCEmRlNiguDe6+uY2TFBMIk7uzmahIgrJCDABMGOW4EIgt4bX30ejHadWiNHjuzQaDWIi4nGhJBpmBI6CaFhszBz1kKD9xQTBDsuhgO6ZhWDA0BngmASdCYIJiHiCkwQ7L8HFOCXfYcxZ9ZiNGr6Ibr7dwE0CnTx8QjoPQAjRg3FlKkzMG/+Uvj4+DFBsP+KpO8VmCCkL97iakwQTILOBMEkRFyBCYL994ACDOw3Gt4+GXDo8FH89OM2QKtAp4tDQEAgRowajqmhM4WKgQmC/Zcj3a/ABCHdIU+GIISie7dx0HjJgOLldPHMVUcxSbiMUSgaGafPHkBk9HUE9OpiBwApeAywcuVKlCtXDlWqVLHDNVy9S88yBktttVjFYMe9rABHDp/D2DFT0aVra7Rq1RyKRoZOF4uAgGCMGDkcU0JnYV4iQfCsfck2CHbcex7btXiiGTyYI2OeI3DgOAT0HA5IvpCcMJZ54i2veIlYC1ovHU6e/R3Rz2+gl60IQuJFiCQZIuOtWh2O8uXKo1JlJgjG94qsyJDleAA6eGkzJOwZApAs9j0rFr4QyCV4MbCRoh2eqAowYmgYDh06Aa23gp07NgHaeEEQegcEY/io4ZgydQ7mkorBl55famAqz9iHTBDssOc8vksjkv3s+TO0bNEV71b7CFCyABI9+J2tyAmeYj4ifoJeicG/V07h6ZO7qFC+nE3cyIyC4wophU4fh3PnzuP113Midx4KE+38SXfSa9Uo3kWuXFnQp083+Hj7QVI0Cf7n5H7mGQ9mY6yZINhx5ylA+Mqt2LJlF0qULISQyWMhJUgQevciFcMwTAqdi3nzScXABMGOK+GYrlnF4ADcjQhCZFQU/Lv1Rf26LaGRsgJSnJGhD40taZw18c5kdGBaGx8utb6TfqdLuCZJELSQFR2giUPmLJng55fVJgCKwLjiTZA81yleA7Bv3w8oXKQoChQs9iLUnE2u5tqdaKHH1q0rMW/+ZGTyy2jIPyBC3DJBsKWb45mzl7Bq1WaMHxcogo3t2r0fBw8ewrix/Q1RA9OhUKj0EaOmY8Swr5AliyHHSroWBYiP16Jfv6EI6N0Vud/ICWgkYaQYHDQKIZPGYFLovAQjRV9ISoIEwUOIKksQ0nU3esjFXiII0QgOGoce/oOhkbIlxJF3LhwkIdWgA4gIglcCZ9ELLYlsswcBqRYM8fMNB50e27dvRNFiJVCmdCWWIBhtCY0SjSWLJyN0+nD4+fpAIzFBoEBJtlYxHDh4GMFDJuHAz+uwecsefNVvNH7bvxGlSxdLtxs0JiYWdRq0x+7ty5EjBz0f0r/odMD0aTNx/cYNoc/Rar3E4+Dp86cYGzIRo8eGYf7/ViBDhgwJcZJI1cXJmtJ/pexwRZYg2AFUU10aEYSo6Bhhg9Cz+xBoNbZ5Gzd1eWu+fyljW0IHRBlslQpHJIgVEgRDkTR6bNuxHsWKlUCpklWtGbJbtiGctIjGkiUhmDptGDL6+UACGbaKvMEe82A2Xlx7qRiIIAQOCkFAz/ZYvnITwldMQ5EiBRAR8RQDAscjJiYO12/cRp/eHdCkUT0EfD4c3t5eePzoCebPHYczZy5i6fIN0Hp5oVTJohg/dgDGjp8tPn/67DmKFS2EyRMHoWad1ihbpjieP49EoYL5MGvGKKxctRkbNu4Sa3rk2D84cWQnunYPhLeXN157LTNatWyC5Ss2wsuLVEoSNqyfC28v2ge2LxRJkYInEoHXUiRWiqIoXhlkREbFY0DgaMybvxy+vipBMERa9ITCEgRPWGUHzlEQhMAJ6NFtCLw0mUXIWGcrialchUFYwkEkHl0SFBs9CMgzwjB1w5uHRhOHbTvWoUix4ihVsjpLEBI3hQKNFIklSyZgahgRBNL7+iQavSbA52xbyK7jsSdBaPBRR2TJnAllShfHLz+tFQfy1as3sXzFJgwZ3AeXr9zEyNFhGDOynzj8ly8NxaZNO1H1nYoYMTIMHdo3R+3a1bB+/Q60a9sUffuNwYzpIxEfFy8kA38c3IKiperi+50rULFiGbxbswU2rZ+HWnXb4o+DG/HWW3lQsUoTHNy3AbXqtkHYlKFo8dnHmBAyB00a10OpUkXRqetAzJw2CgULvmkXnON1emi9vIUxqCRRamfDM0qn0yMqWofgweMxa/ZSZMjgZ9B0CbZvl6E4XadMEJxuSdxgQIYnmmDZUcKLYRJ6dBsDjZcGGughwwtkFqhIOoho8joJkpbuTkclnlHv+ARL+cQlsF3uekkQDwlQ6I1IgUYbj++2rUOx4sVQqtS7brDoqUxBjWUtEKAY9wYvDoNkIOmTlvZBlJAghIYNEQQBICkCFZYg2NIGgSQI/j2D8eOe1Zg05X+IjonB8iWhePjoMb7sOwqyXkbhwvlx8dI1rF8zG1NCF2Lv9weg9dJi2tRhyJY1CyZMnIt/zlxA+bdLCcnAkOFTcfPGXbyRKzu+3f4jjh/agZJvf4DTf+/Bm3nfQI33W2PalGH4rHUfPLh7VOwDIhKb188XBGHbt4tQ7u2SWLJ0PdZt2IGC+d/E0RP/YNO6+SheXA0xbdvbRU7wuEp4JXiRb0EBIqN06B80FnPnLYOvr59hC4r/eAZDYIJg273GvYnnuKpvB6JiIxAYGAb/bmOh9ZIpBgn0ig/0dFZqZKLp8NF4iXjo7vx2aHgpSTjmyI1Picf3P+xA0aLFULx4ebfeN8ZzF9tDuHlSdk6D+DhpkaQYLF4SgrCwIfAjCYKkNTyUDbIXt8YqucnZU4Kg2iDcu/cA1Wp8hmmhw5E1S2asW78dixdOwp69+7Fk2QZMnTQEf/xxFK1aNcbX/ccK4uDr44P69WsgV87s4uCfNCEYn/cdiSsX9uPu3fv4qEk3/PnrFpQu3xBnT+5Fnjy5hLphxZJQ8d3GdXOFUWD9hh3x12/fCoKwa/sylCheGDXfb40F8yegQP438WnL3lg4PwRlyqSfbYSBjyqIjIxD/+BxmDt/OXx8MoiPDXuRCYJb3Ihsg+CAZUyVIJAnsUGCQP7uWkkHb40eiqyBIt4o3bgkkAQFMrQaBfcf3BWGT5kyZXfvB85LWiVKXSyJVN2yeAtjgmBqx9uLIPz662EEDjYYKfr6+uDUPxfQpHl3rP9mNvoHjkfEk2eoU6sazl24jO1bF6FT10CcPnMB3t7e2LLxf4h8HgX/XoMQHROLD+rVRFjoULRs/TmuXruFfG/lEe1WLQtDk096vkQQdn63DCdPnUW/wAnCWyAyMhrHDm0X5IEIQulSRTFx0nwsW7EBWbJmxpt5c6NN68bo1qWVKahs+z0TBNhNgkCiI9Xwy1jHa9sVNN2bsxAEg27bUByJh2nEbFAjRYKgQKNohfSADgZZDzx+cB3h4TORL19ONxfbGR2EhA9RJI0qUXBDpabRfjdEqjTMWUgAZA2ePIlDQO8RQt3EEoTU7zl7EQRTd3pkZBQyZcr4UrWnT58Ld0T1GRYXF4/o6Bhky5YlsR4ZI2bObNplkYwgyb2SDB+TKzExMYKMUApmhxQmCPYhCOphSIczFQp84qii1+tx4sQJHDlyBAEBAQ47nAkTGotXgiWuW5OEVAiCJHtD1sSKeAOSrMGt6+dx4MBSTJnaH5JkK58BR+22lK8r8s0L3SX9lwyh6LwkCwxVZOl8Y07TiIx0tDIFOtLQ2uqF3YEcr8XIkaFo22EKFOVVf3tWMbyMvKMIQprW3x0aM0GwH0HQ6XSJzM+RhyGRlDt37uDu3buoWLGiw9ioKlGh+4b+VomCO9xHr8whFYIAxRuKJtpgrBfvhbs3T+Hg7wsxYWI/kYfdbYswTiS2TAel+ibtbfjMKaNL2mYlRHYLmrsmThgZ6oX4KCNGDZuG1u2nQgETBFNIM0EwhZCdvmeCYD+CEBERgd27dgiXEYMxkoOKoghrXEljeFujKFnpX8giTzYE3tEraNS4KbJnJ72zm5ZUCYIXFClGeLtrZB/cuHISv/4+F5MnDoY2MSiRJdETk2KYNDKjcXKVlFwsU2sjKF2SyI7iVE/4PLW/X3wnJwZIShC1kwQlIS/Fi/ju6lzM6Vvdx8nNL2l7S+dgDaYvj4eIQUxsHCKjooXNKsV9INsLSfJBliy5MHb0dLRuPwEyEwSTDwFBEBQFQQM+x0cf1kDxouTuR6ZyXk7oNGxyOi5TQSPpRByE0JmLsXjJN2ykmKaVE+7jirBMVxQJly7+i283haN5s/fhBXpTcsTBnKYZWdlYgZLgRyv0zAp5wHtDhg566LBn1360bNUFhYsWtbJ/F2iWqg2CN/T0xqxooIUW16/+jQMHFyF0ShA0FIuYi2siIFzFElQoCkWg9MKGdd9h//7fkDd3LsTr44Sq8fad+xg6fAQWLViNdu0nMUEwY7WFelKW8fWXvVGyaF7kz/cGFEEutVDINThRnWMpkbWUOFpDSk2R6eTGYHwdW1/T/PEo+hjExCv4bvuPCA/fDN/ESIrs5mjGtk1SJQlBuHjhXxz8ZRe6dWsO8n63Tcz91DZT0iGbE8/f1OY0fzMZrp7U/YVC+EqA5CXc2vSSHhvW78B71T9GseJlLMfYVVqkQhC0ijd0LxGEkzhwcCETBFdZ25TGaUQQKCrd06cxWLNmC8qVL4eqlcvBy0crzrENm3agSuV3sHTpOrRvP5kJghnrTgRBJ8sI7NcHfXp1QJmSFA+AbFo0kOleSnwhMaMzrmI+AooGzyJ1GDR4HGbNWWwUapkJgvkgqjWTkSD8un8PunVtKtLTeExRdc1CYqI3SBAkEqsbCMK6tTtQu1ZjFC5Swn0hYYLgvmubIkFIIMikTVMkLFn2DcJXbwZZvS9eOB3lK70tDIQ3btqGihWqiFC7bdtPZiNFM3aKgSDoMHjgF+jRvQ3KlipsUC1IWijCpoWLPRCgx1hUtIT+A0dh7jyKpMihlq3H2Ygg0FvzpUuXse/77egV0AISZcfzhEKiVUWLC+f/xdJly/F69tcgKaRe8MLT5xFo+mkzXL50G7VqNUThYkXcFxEmCO67tmYRBC1++OlXrF+3DZkyZsKXX3ZG0RJFhApy06YdqFi5IpYvI4LAXgzmbBTVSHFw0Bfw79oCZUoVSpAaaABKLpaovrWFiiE5kX5S6WhK1zG3nrHdjKk2plQMqbU31bdgWUlsiV5u84xyMQSNMcrmqBJhz1CZ2y4OQmoEgRze3TYCWkKIYCFi1UKnl/Dbb4cQEfEEjRt9AC+ND8hA7cixo4h49gj/3X6CWu9/hCLF0jkqmDlPIlvVYYJgKyRdpx817oGwx9Xi0uVbWLQwHEWKFsWnn9ZF7jw5xVvvxo3bULFSJSxfvglt201lCYIZK5xIEAL7GghC6YIJYckppoQDDcDNGLtLV5EkMEEwjuCTltVMlSCYZmqWW4qrTC+5vo2N3Sy1CDfFWJNjvyQhITsLLU7+fQbjxkwBuVf27N0JjRp/ID4/fPQY7j9+iMcPnqNmrUasYkg0UmQbhLTcdk7TNjHJFUXI9MbcuUvw/d79iI6Ox6Qpg1G5cjlBEDZv3oEKlSphBREEcnPkOAgml/AFQegP/66fokzpAi/asP2BSfysqpAQ9fRZpIwBwSRBWAYfH1/OxWAVmOpZneDF8KqKQf8iz63VF3Dmhi9Iw5Gj/2D2rKXIki0XGtSrhBYtGwpjosNHTuHRoyg8fPgENWt/iEKFWYJg8GJgguDMO9v8sZGdEfnjGUJm3775H5YsWY0iRQujcZMPRKQ9jVaLDRu+Q+XKVbFs2Qa06cA2CObg+0LF8CX8u7Y0qBhEodTEbINgDoZW1VGA55HxGBA8lnMxWAWgcaNUbRDcfBMbiVefR+qwY8fPiImR8Okn9fDaawZfZQNBiDYiCJ7p5sheDGm+05y0A5UgaIULnl4GVq1Yh5vXr6BAwbegVyiKqBaHDp/E119/jWXLN3MkRTNXkgMlmQmUratxoCQbBkpigiDsXfbv/x3BwRPglzEz2rVths/7dBMBkg4f+dsgQXgQgRq1P0ThIixBsKcE4ezZSzj1z3nkzfMGatSobFUEzefPo/DnX8fxQYOaFj96rl+/jfPn/xXtKEgXZbJ7u6z5nisUifTQ4b9R7Z0KyUbdjImJha8vZTp8MbQjR0+hfPlS8PFOiNBo8ajT0uCFWk9RNNDLEm7duoNLFy+IxEyKQoGSAC/vDKhS5V1MGD8LbTqwisEcxJkgmIOSHeowQWCCYJNtJZ6NIlE4bt+9jwX/W4aoKD38u3ZE6dJFReCko0dPIuJJDP777wFq1GqAosVK2uTSTtmJg40U12/YiT5fjsD7td7B8b/PCD/8dWtmw8fHsoPzzJmL+ODjzrh9/U+LYZ4xaxmWrdiIwgXy4WlkJI4ePYXJIYPw5Redzerr0aMnaPZZT+zesVyk3zUuN27cwYCgCVi/ZvZLxKdFyz5YsngycuR4zaxr2LZSErsfyr+QaF1vkC4YQiVoReCw4cMno037ULZBMGMRmCCYAZI9qjBBYIJgk30lYh/oxPMwLl4WYtQ//ziEWjVqUigTyJKCf06fxVv5C+PB/UfCBqFIUfPfJm0yxvTsxMEEoUHDTmjetAH6fe2Phw8f4/MvR2LWzNHI/lpW4X9//cYdNG/WAO9Wq4gff/wVdBjfvnMPer0O/v5tkCN7Nuza/YsIb3vy1DkMHfw5Hj2KwJKl65E5c0Z07dIKmTL5Yf+Bv7B7z35UrFAarVo2FiJ0tRBByJTRDwG92ouPVoV/iymhC3H88HbcvHUXK1duxmuvZRWEgYjLxUtXsWrVFpQsWQT37z+Ef7fWWLNuG3r4t8HhIyexZetelCxeGP7dWmHm7OVYunwjFs0PQcSTpyJdrqLIkGUFLVs0En/TWGnuLVs2QoXypbFr9z5ERcbgydNnKFQon0ip++abubFr1z7x70ePnyAqKhq//X4UBQu8ha5dWoi4BVu+3YsTJ8+ierUKeD1Hdrz3XuUUdlJyUTAT3OESvhIEAVphxGggCGFMEMy4L5kgmAGSPaowQXBtgnDv3kMhvsyZMwf+u/dAPCDz5M6J06cvICo6BkUKF0CGDL54HPEE+fPlFQ9mynue8/XsuHTpmnhA0oM+zcWIIJBL480bd7Bt+48UJ4lcv8XbkwwFHzb8AMeOnxQShCJFrJMgHD16FL/99pvQ4zptcTBBIBJAh/EHH9REww9q452q5ZE7d06MD5mLI0dP4r13K2PR0rX4bvNCzJy9AqdOn0P7Ns2wfefPGNi/B+rXew/vvPcZBvbrjs+/GoEnD0/ig486473qlaDICmLj4tCkSX2j3/JSAAAc3UlEQVT06j0Ug4N6Y8t3e9HTvy06dvjkJYJw/cZtNGtSHzGxsVi+YhOKFy2EIYM/R90G7dC6VROcP39ZkJU14TPwceNuaN+2GQ78elgQjxNHdgoJwm/7N6JW3bYYPbwvtmzdg/drvyv29Ky5KxC+cjr6DRgPLy8N2rZuijVrv8OGdXMxetwsPHr4GKVLF8fGzbuwZ+dyfNV3DB4+fox2rZvi/IUraNumKWq8VxndugehQf2aOHfuX2zf9RP8u7TCzDkrMCNsBEjNMX9BOJo1bYCJk+fj677dMHqEqX2nEgWhczTgIaQJCRIElSCMmII27ZggmHMPM0EwByU71GGC4NoEYcbMZfDx9caXn3dG6LRFePY0Evnz58XaddtRuVJZHPjtMBYvmIihw0Kxa8cy1K7XFjVrVMGwwV+g3ocdsGvbMnFw2LoYbmiDeyVFUjSIWikXgwbr1m1HjdqNUcRKG4Tt27dj/fr1CA8Pt/WwbdefgwkCvfnfuXMPv/9xDIuXrseNm3fww+6V+KixP2rVrCxy3P/8yx/o+2VX/PbbUXzRpyOqVCmHv/8+i/8tDEffr7qh/8BxCJ0yDNXe+wQHf9mALt2D8M/x3YLwPXjwCFOnLcLvvx9D7VpVcfPmHVy+egujR/QVfbz+ejZEx8Thl1/+FG/vs+etwJBBn2NA/+7CgHVg0AS0+OxjxMbEYu2GHYJk/LTvd3GQnzx5TuxTlSD8cXAT6jZoj8yZM6NL58/QoV1zXL12E4GDJmHXtqX44KMu2LxhnlAr1P+ggyAINWq3RqOP6wiJxu69BzBr+ijM/99qLF44UZDpfgPGJUsQKlQojTatm6Bvv9EoUaIoli7fgGlTh6FB/RroGTAU+QvkNYMgqNvISKIgWLK3oMmUzVJRvDFs2HS0oTgInKzJ5H3HBMEkRPapwATBtQnC1NCF8PbxxoB+3TE+ZA6eP4sSb3GDhkzCs+eRqF+vJgYFBeCjJt3wWfMP8M26bcj9Rk5R/8iRUxgx/Cv7bKyEXkXSJlkjSAKFWqbH5Np1u1CjVlMULmJdJMXkCMJ///2HoKAgxMfHg/4eM2YMKlWqhIEDB+Lhw4fQ6/XIli0bFi5ciGHDhuHKlStCfD527FgULFgQH3/8sTiAypYtiyNHjuCPP/7A/fv3MWTIEIwcORI9e/ZE3rx5Rd+ffPIJAgICMGXKFFGP+qYQpFu3bn2BpQMJAmHwcRN/YdzXrWtLRDx+gq/6jcGyJVMxZtwsNG9aH/Xq1QDtHRLXL1i4BsOGfoHChfKL2BWt2n6J27f/w6rlYSIbYdV3m+Pi2X2o06A91n0zG48fP8G0GYvR8MPa2LP3AFYsDcWBg4fx7PlzfN67Y4oqhi7dAoVB4ddf+cO/ZzDCV81AxOOnWLDoG/FmHvD5cCyYOx4//fw7poQtTCQIe3euEGMdNuxLhIdvxeZv92DV8mno3mswtm5eiI6d++P7PavEdVWC0K7j1/jqiy6oVKksQsMWIXBgTwQPmoxNG+aJeqPHzhRqlMaN6qJh464YN3oAzp3/FzVrVkXjj+siKDgEBQrmw5UrN4S0osVnH6FT14Ho0L65BQTBiCgIguBjIAhaHRSZCMJMtG3HuRjMeQAxQTAHJTvUYYLg2gRh1uzleB4ZJXTEPXsPQ67Xs6NIkQKoXLmssBiv92FHjBn5Na5cuYlJU/+HEUO/xJ9/ncCfh07gm1XTUbFCGSFG9baT1Xd6EYTvvvsO//77L/r27YvZs2fj0KFDKF++PE6dOoW1a9di3Lhx+P7779GxY0esW7cOe/bswY8//igO/pMnT4q61IZSdNetW1f8vnPnDjp06CBIRZUqVURfWbNmRbNmzbBgwQJ8+OGHuHHjBp4/f44KFSrg+vXrTkEQaBCxsXH4rFVv7Nv/lzDwmzg+SMSw//ffa6j/UWdBGtq1boLZs8ZgYFCIIJEFC74lxr9+/Q5Mn70M+39aK9RQNd5vhaePTuK77T+ge8/ByJsnF7ZsXIgCBfKiq38Qtu/6GdWqlse3mxcKGwe1zPvfamTMmAH+XVuLj27duouKVZvi+92rhGdE8JDJeDPPG1j0vxDUqfOu0PV/PWAsyr1dEr/+fhT/HN+Dz1r3xv6f1mH23JUImTwPOXNmx86tS1C6dDGUr9xEqDzIpmXb1sXiGo2bdsfqldNAHhQNm3RDfFw8vujdEePGDkDX7sH4ZtUMUe/q1RuoU7894uJ1+LBBTXz8UR1cunQV1atXEsRn6LCpwjXRv2sr+PcchD//PI5CBd9Cw4bvi3vNsiJyFTNBsAy0l2ozQUgDeGlpygTBtQkCPehatP4Cb72VGxFPnqHGu5XRrFkDDBk2VTxM4+LisSZ8plCFFi1ZF1cu7sfmLXsxdsJsHP5zK549fY5mn/XCwX3r7WL5nV4E4cyZM0Iy4Ofnh3v37glpAf1drVo19OvXT6gkiDjQv/fu3Yv3338fsbGxou6cOXPQsGFDHD58GNeuXUOdOnXw5MkT3L59WxCERYsW4Z133sHjx4/x7NkzNG/eHCEhIZg5cyY2bdokpBa1a9fGn38aWfo7UIJg/DyIjIwSroDGxoMqgSBbFEsLEQ/qS6t9YYwYHR0DP78MlnYlSAz1Q/1du3YL/QPHY/jQL7Fn735hUPjr/o0iPbJayBAxQwafxGvr9bKQSBjXMR4ESYji43Upem4QMSabndQ8O6aGLhLfk5torz7DEDJuIJo2aWDhXJkgWAjYK9WZIKQVQSvbM0FwbYJAyx4XF4fnz6ORI0e2xF1AxODhwwjkyZNTWGI7qtiLIKxcuRLz588X0/Ly8hLqhddffx0TJkzAqFGjcPbsWdSoUQNEHEJDQzF16lRxgNOBT2SBJA5UZ9u2bcLYkaQGJEG4desWKlasKH5fvHhRfEcSCCIWJFV4+vSpkCDMmzcP7dq1w44dO8TnpHYgcpFYnIQgOGrdrbnuipWbsHL1tyherCBmzxwtRPuOLpSJcfjIMPxz5gI6tf9USGEsL0wQLMfs5RZMENKKoJXtmSC4PkGwcunTpVlSgkDe4GvW7UKtNNgg0KHctm1b5MxpMK4sVKgQBg8eLH7orbFYsWK4dOmS8HQYNGgQDhw4gBw5cgg1yq5du9CnTx9BFrJnz465c+eK9jVr1hQEgWwJWrVqhdOnTyN//vyi/yVLlqB69ep49OiRIAgkQSD1BBEUki7kyZMHDx48wIkTJ9JOEDw8rjytnyMJbUo3RdrGpXozJLFBGDpTpHuW2UjR5LOICYJJiOxTgQmCfQgC5YO/dPFf7P95J7r7N4fGgW/x9tk55vUqa/TCQFEYKSpxkDUS1qzdjZq1GqOolV4MKV2ZJClkMEiqBSpEJEhK0L59e6EOIHE2GRZSIXUBqSFSEk+TKiFLliwpTpIkDCSZ+PJLMui7jenTpwuphKUSBEmWcOPa3zh4cCkmhgyEVuM4aY95K8q1LEdApvSOgCACMuKVGCiKD0aPmosOnSYxQTADUCYIZoBkjypMEOxHEC5euISD+3ajc5cm8Ba6VM97+MsSPRw10CgSFI0eGi9vhIdvR41ajVC0qHVeDObeB9HR0cII8dtvv0WbNm2wfPlym72dEhGZNGmSMFbMnTs3Vq1aJTwgLCIIFEJKJ+HSuT8xclQrFC7wls3GZy5GXC89ECBXX0XkZ6D/SloiC964dTsC36w5wQTBjCVggmAGSPaowgTBPgRBloGzZ85h4rhhqFSxGGSRq8nzCAKpGEiaQgRBoqhJXlqcOHUJY8ZORYkSxe2xpV/pk1z3UpIUpHUAKYqezbRBkGQtblw7gV9+WYAxY/qCBQhpXRFnbE8RQeg+oDDXsnD3heSLcWPno1OXUCYIZiwZEwQzQLJHFSYI9iEIIt3zxcv4cc9W9OjxqVGwIHusovP2KZPfN0iCQBKU+EQVQ526TUQaXHsWIgb0pk/kgA5ytdDfpG6g76mo5EGtY1yf6pBOnD6zSDduJkHQKlpcv/Y3DhxYhNCpg5gg2HNDOKxvNdW7NxSJCIJOkIXhw2awDYKZa8IEwUygbF2NCYIdCcKly9j3/Xb0CmgBkrR7ogRBJqkBtAYVg6QTdOGbtbtRu3YjFC5iX4JA5MDg6haPDRs2CCNEMigkuwEKikQHPnkeUIAjCpxEbm9vvPGGCJpEcQ/IO4LqqITCLgQBWly/ehIHDi5E6BQiCMnF87f1Xc/9pS8CdA+ocRAUQBsPRfbBMCIIHCjJrKVggmAWTLavxAQhvQgCPSQ8T8UgbBBAKgbSv8ZDlogg7ELt2k1QuHBR229oox7p7Z+CG61evVq4LtavX18YHlJcgJiYGEEaiCCQiyN5PpBUgeIikIcCxUho3bo1ihQpIj5PswRhYBj8u42F1luBVvGGTooTWf0M6Z7/TiAIwdBomCDYdVM4pHNyczQYKRoiKaoEgSMpmrscTBDMRcrG9ZggpBNBUIQRgscVIVKVSYJAoZbjEgjCbtSu1QSFi9iHIJAkgN72KSzyiBEjRFAj1SWSDnoyXhwwYIAgAEQajIP+kLSAJA83b94UMRUo+BKFYqZ2ltkxqL7vEqKioxEYOBk9ug2D1iuDISuFFCMkK0QWrl89jgMHFyB0ymAYxQXyuL3ivhNmgpDWtWWCkFYErWzPBIEJgpVbx6xm9giUlNqF6XCnQhIAyrPQpUsXlChRItF+gA55ckck6ULTpk1FXZIoqIUIgvpDgZIoUiKRiYwZM1pmgyBEyoZUv1FRsQgMmoie3QZBq80sou7qNfHCu8MgQTiJ/QcXIWxKIEsQzNpVrlaJAyWldcWYIKQVQSvbM0FggmDl1jGrWXoTBDrc6fCnHAkUUtnf318c7KqUgAhE//79hYtipkyZEg0Q1clQW+qDiATVnThxolBBUChli2wQjNCJiopBYFAIevoHQavJxgTBrJ3jTpWYIKR1NZkgpBVBK9szQWCCYOXWMavZK5EUFWDNekMkxUKFbW+kqKoIdu/eLQwSq1atKg581dgwMjISixcvFlIB9TP6rR7+xt4ORBCOHz+On376SURptLwY0l1HR8cieFAIevgHQ1L8AI0CWUvBcrSQ9D64df04fv1tGSZPDPbYgFqWY+tKLZggpHW1mCCkFUEr2zNBYIJg5dYxq5kxQZARB0WjxbLlm3Ds2GVUrlLFrD4sqaTaCfz1119CUlCmTBnRXFUbUIbGY8eOiXwKpgoRBDJaJDJRr149C20QqHfh/Y64OD22fvsjqr3zIXy8s0Ev6wRBIPdPLfxw/+4Z+GW8jdDJg6HVeJkaFn/vcggwQUjrkjFBSCuCVrZngsAEwcqtY1azpASBrPDCw7ehZKnqKFCokFl9WFqJ1AQ7d+7Eu+++K9IwGxMECpFMeRjIQNFUIWPHu3fvYtasWYJsWGakaCAIQoIQE4dxY6ehU8cvIOv9oNVmgF6KE5H1oPfG9StHcOHCVkyZxEaKptbENb9ngpDWdWOCkFYErWzPBIEJgpVbx6xmyRGENWt24r2ajVGkqH28GOjNn3IwUCZHYyJAUgRK4zxt2jSMHj1a2CWoQZDUyajBk9R/kx3D9evXERAQYNZ8X6qU4LEYFROJoMAJCOg50qBWABGEeCjQwEuhSIonceC3JZgycQC0WnZztBxoZ2/BBCGtK8QEIa0IWtmeCQITBCu3jlnNHGWk+Pz5c5HJkcgABTyit3/K5kgEgFwf+/XrJzI8qt+pkyFyQXXUCIoDBw4UKZ+LFy9umZGiuZEUXwqUFMReDGbtKlerxAQhrSvGBCGtCFrZngkCEwQrt45ZzdKbIKheCHTQU7rnffv2YciQIfDx8UkMr0w2CKSCIJJAERXViIk0IVIrqCoJygZJRIMSPRG5sEjFwATBrP3hGZWYIKR1nZkgpBVBK9szQWCCYOXWMauZIwgCkQRSH5BKYfPmzaB4Bi1atEDhwoXFQU8kYO3atSKQUrt27fDmm28mRkokYvH06VPhuUCGjiNHjhQkwjiYknkTpyyWhsiZUbERCAxMiKTopUZSfDkOgiHUMksQzMLW5SoxQUjrkjFBSCuCVrZngsAEwcqtY1az9CYIxoOiw57yMFCehS1btoAMFGvWrCkkAlROnz6NFStWiMOfQjFTXASyW7h06RI+/fRTNGzYUARRUt0gLYqDwBIEs/aHZ1RigpDWdWaCkFYErWzPBIEJgpVbx6xmjiQIashlVe1AkgFSJ6iJmmgCRCKIENAP1c+bNy/Kli0LPz+/RJUCEwSzlporpYgAE4S0bg4mCGlF0Mr2TBCYIFi5dcxq5kiCoGZzVAMiGadxJqkBfW8cLMk4SBJNTpUYWGR7oKLCEgSz9odnVGKCkNZ1VuOYDA76Cv5d26B0aXKRNoQylyTPzHOTVkzNaU+4P4/UYUDwGMydtxy+vn6iGUV48ZTkg5KS9GQwB7nk6ojw+woUjSGD4SXjdM8em6xJAWQNJJGsiVz7gLXrdqFGraYoXKSItUg7fzsmCM6/Ruk2QiYIaYaaQqjHx2PAwH5o3vwjFC9eEJDiBUmQFJlogrgEBSYz/ttwmBkCliX3d/JtDD283MZQ09CX4W9Dz4a/kn738hiS6+/FeJIbg2XzSTqe1Mf2YtzG9YzxedGfLCmIjNYhZOIMLFm8Gn4ZMiUsJRMEy/c0E4RXMHOkBMHyBbRhCyYINgTT1btigpDWFVQUGYpej8ULF+CPP36Ft0/CEU6/ZK2ISsrF1ggoULQy9LKM3LnyY/z4EPj4qIntmCBYjjYTBCYIKgJMECy/f9y2BROEtC8tJWHTQZENeVU0EjEDg9RAJnIg/s3FtggkyEZkg0Rco3mRs0aVoNj2es7ZG6sY7LguLEFgN0c7bi8X6ZoJQtoXSk2fTtL8F+RACMMlOsC42AUBRZNAw4gjqFFePYuMMUGwy84ydMoEgQmCHbeXi3TNBCHtC5U0BPkLETepH7jYBwFJVd0IcmCQJIByyHiOhoG9GOyztZggcKAke+4sV+qbCYJtV0slBAmkQSb7A896q7Utnqn0JoQ1hLfqKUJYM0GwDn+2QXgFN5YgsATBupvJnVoxQbDPaiYQhISIpfa5hof3KnhXUumNZ5ExVjHY8R5ggsAEwY7by0W6ZoLgIgvFw2QEXkGACYIdNwUTBCYIdtxeLtI1EwQXWSgeJiPABCE99wATBCYI6bnfnPNaTBCcc114VIyAaQRYgmAaI6trMEFggmD15nGbhkwQ3GYpeSIehwATBDsuORMEJgh23F4u0jUTBBdZKB4mI8AqhvTcA0wQmCCk535zzmsxQXDOdeFRMQKmEWAJgmmMrK7BBIEJgtWbx20aMkFwm6XkiXgcAkwQ7LjkTBCYINhxe7lI10wQXGSheJiMAKsY0nMPMEFggpCe+805r8UEwTnXhUfFCJhGgCUIpjGyugYTBCYIVm8et2nIBMFtlpIn4nEIMEGw45IzQWCCYMft5SJdM0FwkYXiYTIC9lMxKPQcoNwWlNxCkXD50kX8/MM29ApoBYic2p5XFMoGplAqFVmkZVXghbVrdqFG7Y9QuGhR9wWEMswlxIiPio1AYGAY/LuNhdZLhkbWQq+h77XQQIPrV49j/8GlCJsyEFr6nIvbIWCIZq+BQg8JjQRF9sbw4WFo024qFPi++lCSYrB4SQjCwobAz88XkqSFlBgTnxLmcGEEGIH0QMBmEgR6CFDOK21C6uzLl87j5x+3oWfP1gB06TEX57uGOCRlQNKL81KRM2Ddmu2oWfsjFCxawvnGa6sRpUIQtIoEnWTIiiZJwPWrR7D/wAqETQmCl6RmTbPVQLgfxyNAR7tgyYIsK4oXAG8MHzYFrTtMhaIwQXD8GvEIGIHkEbAhQaDHAD0B6L0Q+PfSeez7YTt69GoPBTGemZBUkQzSA41evP8osg/Wrv0ONd9viMKFS7tvmtZUCYIGOmIG0ECSJNy4egi/HFiOsMmD4SVSq3JxNwQSCYJ4PlC6XJIgTEGrDqFQlAwsQXC3Bef5uA0CNiUIhlcEOhSBy5cuYOWKxWjWrCEUeov2xCJenAzESaG/FC127/kJXbr1QpEixdwXkVQJgjd0JCmQNGKfXL9yBPsPhiOUVAwsQXC7PWF4Ggh6LH4U8QLhjWHDJ6NV++lMENxuxXlC7oSAzQjCi4cAiRGBJxGPsX/fPsgy6d9Jh/gis7aaUVvYLCSgqWbdTlovuc+pibn1jBfLnDaWjIf6Tm3cJElRr0kUSa8nLDT4+OOGyJolizvto5fnkipB8IJOSApIJw3cuvYPvlk7DX0+b5NIEJLuC1Nroq6DPeuZ6julfZDa2NIybkvGk9x1TLVPy9hevj81kBLtcHSGFwjJG4sXf4OBQStYxeC+TwGemRsgYDuCQIdCwnFJ78tklyhBA51eDy8v0jt6YpFBb1Di3UlRIBNGGi20kgSNELO7aUlKEAYmGCl6y9AqWujoxCBrFUVC1JNH2LV7NeJJDSWRBQsXt0JAIYJAdwFJjQy2SIpeQoYMWfFZy17CcDcJu4QkxbKRolttAp6MqyJgO4Ig1AsJqgQJ0OlkaDRe4mCUhHW6OTIEa95rkmtj7juTufUseT80Go9RM3pbJmmKpDF876XxdtU9Y8a4abKGalGxzxE4cBJ6dBsNyVsLrUImq/RKqYVG0QCyHhpEA1rvBAM2amWQMBiK8d+qqJq+S+5vwtaUnEiVTyQYkIr66t90veSum3Q8aj1VdZbSeIz7SmlsyclLko7NeK7J4ZPcHIzHlhqmpuaQVkwN0kODCTOtuwJFNnwip0AIDQRhUhIvBvVeZS8GM25ArsII2AQBGxKEhBvY4OuYZHDqSWmTMbtoJwnW3IlqFTeWICSukIyo6FgEDhyHnt2HQKvJlnDgC7M1UTwBBRfdsA4btiLFYNGSCQibNgJ+GXwhCY8XlTQxQXDYwvCFPQ4BGxMEj8OPJ5wqAipBGI+e3QcLgiAkSswKeN+kiIACRYpOQhC8EvaMsSSHIWQEGAF7I8AEwd4Ie3T/BoIQFDge3bsNgpf2NY9GgydvHgJEEBYsHovp00cmSBCYIJiHHNdiBGyLABME2+LJvb2EwAuC0K1LELy9crD0gHeICQTITiEai5aGYMrUwcjo5weN5M0SBN43jIADEGCC4ADQPeeSKkGYIFQMErJAEjEQCAFLDD+pfkrGh0nRNGWkqNY3p56xAawpA1pXcMg1dw7WYmrcLjV81fVPbjykRtDhf4snYPr04fDL4AMJTBA855nBM3UmBJggONNquN1YDAQhoFcgqlVtCFn2hUajY4Ig1tn4ALXmQDb3sHdGkpMyQSAbFUXR4c/De7FkyTRk9MsACaqKwdjjw+1uFp4QI+B0CDBBcLolca8BkWvnhQsXRVwMkatHw1bo7rXCtp+NolDsFC0KFSoIrZcWWg3Hx7A9ytwjI2AaASYIpjHiGmlAQASIkmXxo9Xygz4NUHpMUxEvJMHVhX4zqfSYpeeJOhkCTBCcbEHcbTgGkbECnU4nHvRMEtxthW0/H9over0+ca8wQbA9xtwjI2AOAkwQzEGJ69gEAUMMBA6CYBMw3bgT2idUeK+48SLz1FwCASYILrFMPEhGgBFgBBgBRiB9EWCCkL5489UYAUaAEWAEGAGXQIAJgkssEw+SEWAEGAFGgBFIXwSYIKQv3nw1RoARYAQYAUbAJRBgguASy8SDZAQYAUaAEWAE0hcBJgjpizdfjRFgBBgBRoARcAkEmCC4xDLxIBkBRoARYAQYgfRFgAlC+uLNV2MEGAFGgBFgBFwCASYILrFMPEhGgBFgBBgBRiB9EWCCkL5489UYAUaAEWAEGAGXQIAJgkssEw+SEWAEGAFGgBFIXwSYIKQv3nw1RoARYAQYAUbAJRD4P4Kf/adStp6oAAAAAElFTkSuQmCC;" vertex="1" parent="1">
                    <mxGeometry width="964.24" height="840" as="geometry"/>
                </mxCell>
                <mxCell id="3" value="AMS (Stateless):&amp;nbsp; Verewaltet Lebenszyklus des MAS und seiner Agenten. Es ist daher für die Erstellung, Manipulation und Beendigung von MAS und Agenten verantwortlich." style="text;html=1;strokeColor=#BD7000;fillColor=#f0a30a;align=center;verticalAlign=middle;whiteSpace=wrap;rounded=0;fontColor=#000000;" vertex="1" parent="1">
                    <mxGeometry x="-70" y="180" width="320" height="60" as="geometry"/>
                </mxCell>
                <mxCell id="4" value="etcd: Key Valuer Speicher um das Speichern der Konfiguration" style="text;html=1;strokeColor=#BD7000;fillColor=#f0a30a;align=center;verticalAlign=middle;whiteSpace=wrap;rounded=0;fontColor=#000000;" vertex="1" parent="1">
                    <mxGeometry x="-70" y="420" width="320" height="60" as="geometry"/>
                </mxCell>
            </root>
        </mxGraphModel>
    </diagram>
</mxfile>